<?xml version="1.0" encoding="UTF-8"?>
<svg version="1.1" xmlns="http://www.w3.org/2000/svg" width="1024" height="1024">
<path d="M0 0 C79.99621851 -2.17824965 163.98632169 18.3275883 232.80419922 59.06640625 C233.70235352 59.59492187 234.60050781 60.1234375 235.52587891 60.66796875 C260.22337776 75.26156672 282.82454844 91.98377761 304.55419922 110.69140625 C305.16827637 111.21774658 305.78235352 111.74408691 306.41503906 112.28637695 C310.10442056 115.48287936 313.57695731 118.8189511 316.99926758 122.29833984 C318.85737262 124.1184936 320.78551375 125.81262937 322.76123047 127.50390625 C326.94351888 131.11775758 330.72966252 135.02162972 334.49169922 139.06640625 C335.18086426 139.80407227 335.8700293 140.54173828 336.58007812 141.30175781 C346.91939244 152.42980525 356.76359196 163.85464232 365.80419922 176.06640625 C366.29887695 176.72979004 366.79355469 177.39317383 367.30322266 178.07666016 C380.56149048 195.90801051 392.01293841 214.65760814 402.80419922 234.06640625 C403.20735352 234.78473633 403.61050781 235.50306641 404.02587891 236.24316406 C429.77605311 282.32126778 444.66694422 335.0080055 451.80419922 387.06640625 C451.96936035 388.20980469 452.13452148 389.35320312 452.3046875 390.53125 C457.55513599 428.10426298 457.22523234 468.5369906 451.80419922 506.06640625 C451.54678955 507.94392578 451.54678955 507.94392578 451.28417969 509.859375 C447.37809184 537.92456381 440.71870589 565.18078908 431.80419922 592.06640625 C431.46694824 593.08621582 431.12969727 594.10602539 430.78222656 595.15673828 C414.59761463 643.44940807 389.41732911 688.21865352 357.80419922 728.06640625 C357.37913086 728.60330078 356.9540625 729.14019531 356.51611328 729.69335938 C351.91988085 735.47126713 347.1212384 741.03569863 342.14013672 746.484375 C340.8843431 747.87246794 339.63416545 749.26631001 338.42138672 750.69213867 C333.16508212 756.84784466 327.49252836 762.56419566 321.77197266 768.28393555 C320.06625324 769.99183681 318.36870895 771.7075867 316.67138672 773.42382812 C310.81304833 779.31207337 304.86416822 784.84505535 298.34985352 790.01782227 C295.88371475 792.0024171 293.52948195 794.06735814 291.18310547 796.19140625 C269.5842539 815.57339498 243.98456647 830.87655138 218.80419922 845.06640625 C218.13227539 845.45199707 217.46035156 845.83758789 216.76806641 846.23486328 C173.02782554 871.3130802 122.63616224 886.1559344 73.05419922 893.81640625 C71.77754395 894.01524414 70.50088867 894.21408203 69.18554688 894.41894531 C48.08876474 897.52603739 27.11403889 898.44348849 5.80419922 898.37890625 C3.92599991 898.37617203 3.92599991 898.37617203 2.00985718 898.37338257 C-16.9011618 898.32709818 -35.45972404 897.82375088 -54.19580078 895.06640625 C-55.43104492 894.88948242 -56.66628906 894.71255859 -57.93896484 894.53027344 C-107.81183532 887.22164473 -155.42196259 872.16827524 -200.23486328 849.07568359 C-201.55298558 848.3972576 -202.87334732 847.72316673 -204.19580078 847.05322266 C-235.74512314 831.0586263 -265.5094941 810.26649747 -291.61376953 786.40234375 C-293.00186248 785.14655013 -294.39570454 783.89637248 -295.8215332 782.68359375 C-301.97723919 777.42728915 -307.69359019 771.7547354 -313.41333008 766.03417969 C-315.12123134 764.32846027 -316.83698123 762.63091598 -318.55322266 760.93359375 C-325.23366883 754.2868808 -331.34945329 747.46747619 -337.19580078 740.06640625 C-338.75505883 738.23031483 -340.31684011 736.39635661 -341.88330078 734.56640625 C-359.72859323 713.11350067 -374.81309566 689.51106398 -388.19580078 665.06640625 C-388.68113281 664.19145508 -389.16646484 663.31650391 -389.66650391 662.41503906 C-409.66832984 626.19302358 -423.69282527 586.51377949 -432.19580078 546.06640625 C-432.42847656 544.9769873 -432.66115234 543.88756836 -432.90087891 542.76513672 C-435.80538626 528.93148949 -437.82739092 515.03716136 -439.44580078 501.00390625 C-439.5705629 499.93133575 -439.5705629 499.93133575 -439.69784546 498.83709717 C-441.633838 481.95987477 -442.40751122 465.11230381 -442.38330078 448.12890625 C-442.38239441 446.93260086 -442.38239441 446.93260086 -442.38146973 445.71212769 C-442.35171045 431.09397044 -441.74640612 416.61052982 -440.19580078 402.06640625 C-440.07221191 400.90189941 -439.94862305 399.73739258 -439.82128906 398.53759766 C-431.23326641 320.95392152 -402.41619761 244.43055686 -355.19580078 182.06640625 C-354.3155563 180.88934995 -353.43534633 179.71226784 -352.55517578 178.53515625 C-347.20859612 171.44135548 -341.54210844 164.65713344 -335.75170898 157.92578125 C-334.59957065 156.54892803 -333.47445578 155.1493624 -332.36450195 153.73828125 C-326.26452915 146.03932779 -319.53913591 139.13568131 -312.56616211 132.23095703 C-310.62762518 130.31078442 -308.69731867 128.38262169 -306.76806641 126.453125 C-300.74685289 120.44904236 -294.71083024 114.53930396 -288.19580078 109.06640625 C-287.21998047 108.20917969 -286.24416016 107.35195312 -285.23876953 106.46875 C-275.95513965 98.45511053 -266.14383929 91.23021575 -256.19580078 84.06640625 C-255.22384766 83.36386719 -254.25189453 82.66132813 -253.25048828 81.9375 C-241.03652236 73.25066945 -228.21904504 65.46890274 -215.19580078 58.06640625 C-214.30602539 57.56061035 -213.41625 57.05481445 -212.49951172 56.53369141 C-147.5290911 19.8748402 -74.27665052 2.24630297 0 0 Z " fill="#178289" transform="translate(503.19580078125,58.93359375)"/>
<path d="M0 0 C3.7342831 1.24476103 4.09728115 2.32936086 6.08203125 5.65234375 C6.67725586 6.64298828 7.27248047 7.63363281 7.88574219 8.65429688 C8.52157227 9.73775391 9.15740234 10.82121094 9.8125 11.9375 C10.47540039 13.05833984 11.13830078 14.17917969 11.82128906 15.33398438 C43.31403278 68.84096389 63.55918128 126.4335401 72 188 C72.16516113 189.14339844 72.33032227 190.28679687 72.50048828 191.46484375 C77.75093677 229.03785673 77.42103312 269.47058435 72 307 C71.74259033 308.87751953 71.74259033 308.87751953 71.47998047 310.79296875 C67.57389262 338.85815756 60.91450667 366.11438283 52 393 C51.49412354 394.52971436 51.49412354 394.52971436 50.97802734 396.09033203 C34.79341541 444.38300182 9.61312989 489.15224727 -22 529 C-22.42506836 529.53689453 -22.85013672 530.07378906 -23.28808594 530.62695312 C-27.88431837 536.40486088 -32.68296081 541.96929238 -37.6640625 547.41796875 C-38.91985612 548.80606169 -40.17003377 550.19990376 -41.3828125 551.62573242 C-46.6391171 557.78143841 -52.31167085 563.49778941 -58.03222656 569.2175293 C-59.73794598 570.92543056 -61.43549027 572.64118045 -63.1328125 574.35742188 C-68.99115089 580.24566712 -74.940031 585.7786491 -81.4543457 590.95141602 C-83.92048447 592.93601085 -86.27471727 595.00095189 -88.62109375 597.125 C-110.21994532 616.50698873 -135.81963275 631.81014513 -161 646 C-162.00788574 646.57838623 -162.00788574 646.57838623 -163.03613281 647.16845703 C-206.77637368 672.24667395 -257.16803698 687.08952815 -306.75 694.75 C-308.66498291 695.04825684 -308.66498291 695.04825684 -310.61865234 695.35253906 C-331.71543448 698.45963114 -352.69016032 699.37708224 -374 699.3125 C-375.87819931 699.30976578 -375.87819931 699.30976578 -377.79434204 699.30697632 C-396.70536102 699.26069193 -415.26392326 698.75734463 -434 696 C-435.23524414 695.82307617 -436.47048828 695.64615234 -437.74316406 695.46386719 C-487.61603454 688.15523848 -535.22616181 673.10186899 -580.0390625 650.00927734 C-581.3571848 649.33085135 -582.67754653 648.65676048 -584 647.98681641 C-607.05358585 636.29931339 -628.72771545 622.01426163 -649 606 C-645.3637325 599.71917431 -640.18078263 595.01831906 -635 590 C-634.34 589.34 -633.68 588.68 -633 588 C-631.89913178 587.07937469 -630.79457467 586.1631525 -629.6875 585.25 C-627.34366817 583.2604119 -625.29435512 581.2757172 -623.375 578.875 C-621.08021693 576.09710471 -618.85488553 574.17515088 -616 572 C-611.40599527 568.25255634 -607.19708012 564.23423916 -603.04296875 560.0078125 C-601.05487166 558.0539274 -598.99884711 556.24175869 -596.875 554.4375 C-594.25519639 552.20145669 -592.03407233 549.93197266 -589.875 547.25 C-587.28278186 544.08173338 -584.68490968 542.80325367 -581 541 C-578.26416167 538.29430865 -576.13099661 535.19649491 -574 532 C-573.34 531.67 -572.68 531.34 -572 531 C-571.34 530.01 -570.68 529.02 -570 528 C-569.34 528.33 -568.68 528.66 -568 529 C-567.34 527.68 -566.68 526.36 -566 525 C-565.34 525 -564.68 525 -564 525 C-564 524.34 -564 523.68 -564 523 C-562.56580496 521.7659252 -561.12554257 520.53784628 -559.6484375 519.35546875 C-556.39831208 516.68297225 -553.55780478 513.57248385 -550.625 510.5625 C-548.70362214 508.68686923 -546.80241257 506.96664922 -544.75 505.25 C-540.88074932 502.0015302 -537.41186988 498.40205361 -533.91796875 494.7578125 C-532 493 -532 493 -530 493 C-529.34 491.68 -528.68 490.36 -528 489 C-527.34 489 -526.68 489 -526 489 C-525.67 488.01 -525.34 487.02 -525 486 C-523.61032458 484.79982577 -522.21790674 483.60016995 -520.765625 482.4765625 C-517.74926024 479.95402737 -515.06955773 477.09162649 -512.31982422 474.28515625 C-510.48715038 472.41619677 -508.64991638 470.55179603 -506.8125 468.6875 C-506.18408203 468.04232422 -505.55566406 467.39714844 -504.90820312 466.73242188 C-504.30556641 466.12333984 -503.70292969 465.51425781 -503.08203125 464.88671875 C-502.53780518 464.33201904 -501.9935791 463.77731934 -501.43286133 463.20581055 C-500 462 -500 462 -498 462 C-498 461.34 -498 460.68 -498 460 C-496.3214487 458.50370821 -494.58041102 457.07707339 -492.8125 455.6875 C-487.96426724 451.86473013 -483.44654843 448.16982265 -480 443 C-478.66720343 442.33226088 -477.33383915 441.66565407 -476 441 C-474.43747894 439.39317737 -474.43747894 439.39317737 -473.0625 437.5625 C-470.60936084 434.58193592 -468.38549763 432.8991816 -465 431 C-461.66839786 428.37626714 -458.56023872 425.56023872 -455.5625 422.5625 C-452.75770888 419.75770888 -449.79762683 417.20755461 -446.76953125 414.6484375 C-444.78388311 412.92576263 -444.78388311 412.92576263 -443 410 C-442.34 410 -441.68 410 -441 410 C-440.731875 409.236875 -440.46375 408.47375 -440.1875 407.6875 C-438.51240666 403.89649927 -436.41601647 402.33281317 -433.1875 399.75 C-430.89834524 397.87143073 -429.00583236 395.91069819 -427.125 393.625 C-422.71241941 388.33909617 -417.749717 383.93721548 -411.8125 380.4375 C-407.96533246 378.1610695 -405.66010895 375.5745214 -403 372 C-400.05517376 372.31508429 -399.14749372 372.82131585 -397.22900391 375.14550781 C-395.34157588 378.16938944 -393.46658543 381.19791353 -391.625 384.25 C-390.95855469 385.30058594 -390.29210937 386.35117187 -389.60546875 387.43359375 C-388.98542969 388.45066406 -388.36539062 389.46773437 -387.7265625 390.515625 C-387.15502441 391.44665039 -386.58348633 392.37767578 -385.99462891 393.33691406 C-385 396 -385 396 -385.6796875 398.59423828 C-386.87099919 400.76494565 -388.06240378 402.89201861 -389.3984375 404.9765625 C-389.87200684 405.72043213 -390.34557617 406.46430176 -390.83349609 407.23071289 C-391.34219238 408.02082764 -391.85088867 408.81094238 -392.375 409.625 C-393.45840917 411.3241704 -394.5417402 413.02339062 -395.625 414.72265625 C-396.181875 415.59293457 -396.73875 416.46321289 -397.3125 417.35986328 C-401.02015711 423.16058723 -404.69724181 428.98049969 -408.35546875 434.8125 C-409.88877851 437.25538191 -411.44550901 439.66529345 -413.05078125 442.0625 C-417.58656536 448.99066666 -418.67381415 454.75497083 -417.375 462.9375 C-415.71578253 466.63302982 -414.61746492 467.29632598 -411 469 C-407.83450807 469.44468103 -407.83450807 469.44468103 -404.37719727 469.37231445 C-403.73261566 469.37596512 -403.08803406 469.37961578 -402.42391968 469.38337708 C-400.30447598 469.39144748 -398.18580548 469.37790122 -396.06640625 469.36328125 C-394.58576966 469.36276215 -393.10513237 469.36328177 -391.62449646 469.36479187 C-388.52519404 469.3647023 -385.42615255 469.35430542 -382.3269043 469.33618164 C-378.36478237 469.31351481 -374.40304205 469.31294842 -370.44087315 469.31969929 C-367.38413637 469.32304988 -364.32748571 469.31638838 -361.2707653 469.30657005 C-359.81040842 469.30273505 -358.35004192 469.30156275 -356.88968086 469.3031559 C-354.84366929 469.30352906 -352.7981365 469.29083661 -350.75219727 469.2746582 C-349.0094326 469.26774712 -349.0094326 469.26774712 -347.23146057 469.26069641 C-342.70704286 468.89569135 -339.16172506 468.25585693 -336.0234375 464.86328125 C-335.47945312 464.02152344 -334.93546875 463.17976563 -334.375 462.3125 C-333.50294922 460.97251953 -333.50294922 460.97251953 -332.61328125 459.60546875 C-332.08089844 458.74566406 -331.54851562 457.88585937 -331 457 C-330.56042969 456.31550781 -330.12085938 455.63101562 -329.66796875 454.92578125 C-327.62450787 451.59703402 -327 450.01097054 -327 446 C-359.67 445.505 -359.67 445.505 -393 445 C-391.51923821 441.29809552 -390.23306213 438.57052748 -388.12890625 435.296875 C-387.55930176 434.40693848 -386.98969727 433.51700195 -386.40283203 432.60009766 C-385.79552246 431.65956543 -385.18821289 430.7190332 -384.5625 429.75 C-383.9422998 428.77724121 -383.32209961 427.80448242 -382.68310547 426.80224609 C-379.72632125 422.17578408 -376.73571695 417.58193983 -373.62890625 413.0546875 C-373.119646 412.30219727 -372.61038574 411.54970703 -372.08569336 410.77441406 C-371.13995777 409.38276169 -370.17935452 408.00105047 -369.20141602 406.63183594 C-366.75914084 403.0172872 -365.08949618 399.80991341 -365.38574219 395.28173828 C-366.84287536 389.86903295 -370.27995844 385.26891893 -373.3125 380.625 C-374.04485534 379.47450604 -374.77531133 378.32280094 -375.50390625 377.16992188 C-376.96407425 374.86352429 -378.43244823 372.56274187 -379.90869141 370.26660156 C-382.82582808 365.71006541 -385.67158035 361.11193931 -388.5 356.5 C-388.96188721 355.75959473 -389.42377441 355.01918945 -389.8996582 354.25634766 C-393 349.2290594 -393 349.2290594 -393 347 C-371.22 347 -349.44 347 -327 347 C-327.61731328 340.97899727 -327.61731328 340.97899727 -329.99609375 336.32421875 C-330.38990234 335.72416016 -330.78371094 335.12410156 -331.18945312 334.50585938 C-331.60130859 333.90580078 -332.01316406 333.30574219 -332.4375 332.6875 C-332.84548828 332.06810547 -333.25347656 331.44871094 -333.67382812 330.81054688 C-336.76466676 325.77568505 -336.76466676 325.77568505 -341.8203125 323.3671875 C-342.91085937 323.20476562 -344.00140625 323.04234375 -345.125 322.875 C-346.22070312 322.70742188 -347.31640625 322.53984375 -348.4453125 322.3671875 C-349.28835938 322.24601562 -350.13140625 322.12484375 -351 322 C-349.625 320 -349.625 320 -348 318 C-347.34 318 -346.68 318 -346 318 C-345.6596875 316.8553125 -345.6596875 316.8553125 -345.3125 315.6875 C-343.69241564 312.3701844 -342.13327046 311.86265642 -339 310 C-337.51942791 308.62841078 -336.08238942 307.20864122 -334.6875 305.75 C-331.89957721 302.89306922 -329.10058161 300.15163432 -326.0625 297.5625 C-321.10746871 293.3124932 -316.57787491 288.64794442 -312 284 C-309.54715275 281.51481766 -307.07180475 279.1049934 -304.4375 276.8125 C-303.85871094 276.30332031 -303.27992188 275.79414062 -302.68359375 275.26953125 C-301 274 -301 274 -298 273 C-297.71125 272.401875 -297.4225 271.80375 -297.125 271.1875 C-295.63763267 268.29539686 -293.54429484 267.01176802 -291 265 C-289.8080265 263.55030251 -288.61698467 262.09974268 -287.44140625 260.63671875 C-284.03332728 256.76684046 -279.89949446 253.56618695 -275.9296875 250.29296875 C-275.29289062 249.76316406 -274.65609375 249.23335937 -274 248.6875 C-273.13375 247.98173828 -273.13375 247.98173828 -272.25 247.26171875 C-270.76539999 246.05921273 -270.76539999 246.05921273 -271 244 C-270.29875 243.5875 -269.5975 243.175 -268.875 242.75 C-266.36263909 241.22073684 -264.81257529 239.90103071 -262.8125 237.8125 C-261.884375 236.884375 -260.95625 235.95625 -260 235 C-259.34 235 -258.68 235 -258 235 C-258 234.34 -258 233.68 -258 233 C-257.34 233 -256.68 233 -256 233 C-255.67 232.01 -255.34 231.02 -255 230 C-253.328125 228.3515625 -253.328125 228.3515625 -251.25 226.625 C-248.9055135 224.63800612 -246.67561863 222.67561863 -244.5 220.5 C-241.72913995 217.72913995 -238.786378 215.24378905 -235.76953125 212.74609375 C-233.87912446 211.11308009 -233.87912446 211.11308009 -233.13671875 208.84765625 C-232.76160156 208.23792969 -232.38648438 207.62820313 -232 207 C-230.01194507 206.60156718 -228.01033726 206.26392275 -226 206 C-225.99761165 207.29320978 -225.99522329 208.58641956 -225.99276257 209.91881752 C-225.93540853 240.61377973 -225.86268215 271.30866268 -225.77101372 302.00354014 C-225.75974549 305.78116835 -225.74860705 309.55879694 -225.73754883 313.33642578 C-225.7342433 314.46451737 -225.7342433 314.46451737 -225.730871 315.61539869 C-225.6954941 327.79427038 -225.67063219 339.97314201 -225.64965298 352.15204604 C-225.62789405 364.64779328 -225.59484276 377.14347382 -225.55129844 389.63916433 C-225.52478328 397.35030692 -225.50708693 405.06136638 -225.50065396 412.7725523 C-225.49477872 418.68449218 -225.47319584 424.59630904 -225.44572449 430.50819016 C-225.43691762 432.93416787 -225.43322713 435.36017028 -225.43499184 437.78616333 C-225.43663898 441.09485506 -225.41999232 444.40296614 -225.39872742 447.71157837 C-225.40357499 448.67462029 -225.40842257 449.63766221 -225.41341704 450.62988722 C-225.34853249 456.7348475 -224.54746262 461.16948598 -220.3125 465.875 C-216.82075232 467.57368806 -213.73504274 467.82934106 -210 467 C-203.44203089 463.26372441 -198.21145118 457.42068999 -193 452.0625 C-188.1380064 447.08849801 -183.25280835 442.26270019 -177.97802734 437.72680664 C-174.47261485 434.66660144 -171.13687951 431.44189258 -167.8125 428.1875 C-167.12736328 427.53974609 -166.44222656 426.89199219 -165.73632812 426.22460938 C-158.7055715 419.31565604 -154.90924544 411.49023319 -152.75 401.9375 C-152.59015625 401.29490234 -152.4303125 400.65230469 -152.265625 399.99023438 C-150.25059399 391.55229201 -149.85079172 383.15013581 -149.84178162 374.50267029 C-149.83437465 372.97205407 -149.83437465 372.97205407 -149.82681805 371.41051632 C-149.81153127 368.01122792 -149.80310647 364.61195828 -149.79467773 361.21264648 C-149.78509227 358.76799863 -149.7750818 356.3233524 -149.76467896 353.87870789 C-149.74327867 348.62575917 -149.72482058 343.37280897 -149.70907402 338.11984062 C-149.68630237 330.52505353 -149.65816994 322.93029362 -149.62875474 315.33552969 C-149.5811679 303.01170306 -149.53787977 290.68786527 -149.49731445 278.36401367 C-149.45791407 266.39688245 -149.41647706 254.42976112 -149.37231445 242.46264648 C-149.36822804 241.3550309 -149.36822804 241.3550309 -149.36405908 240.22503924 C-149.35037886 236.52042515 -149.33665873 232.81581122 -149.32291877 229.11119735 C-149.20909404 198.40748543 -149.10232588 167.70375253 -149 137 C-147.35 136.34 -145.7 135.68 -144 135 C-144 134.34 -144 133.68 -144 133 C-143.34 133 -142.68 133 -142 133 C-142 132.34 -142 131.68 -142 131 C-140.53344727 129.53710937 -140.53344727 129.53710937 -138.50390625 127.84375 C-134.1967176 124.18031682 -130.05520347 120.37407601 -125.9375 116.5 C-125.26912109 115.87480469 -124.60074219 115.24960937 -123.91210938 114.60546875 C-120.04664605 110.97666645 -116.2659245 107.27931326 -112.52954102 103.51806641 C-110.74718579 101.7490824 -108.90388955 100.07468089 -107 98.4375 C-106.33355469 97.86128906 -105.66710937 97.28507812 -104.98046875 96.69140625 C-103.69365603 95.59241235 -102.40470793 94.4959121 -101.11328125 93.40234375 C-100.51902344 92.89832031 -99.92476562 92.39429688 -99.3125 91.875 C-98.79300781 91.43929687 -98.27351562 91.00359375 -97.73828125 90.5546875 C-94.55272559 87.70558379 -91.60430752 84.6131799 -88.60546875 81.5703125 C-84.2050593 77.12014075 -79.75157722 72.84390406 -74.99609375 68.77734375 C-72.73867374 66.76731223 -70.62264287 64.65167047 -68.5 62.5 C-63.92113438 57.86606211 -59.09108219 53.61553108 -54.12109375 49.41015625 C-51.5097956 47.19365479 -48.98657221 44.98657221 -46.5625 42.5625 C-44.43453344 40.43453344 -42.27293759 38.46704692 -40 36.5 C-36.86507743 33.78033769 -33.89990633 30.97240399 -31 28 C-26.40964539 23.31007154 -21.74220042 18.81390507 -16.7578125 14.54296875 C-15.32037286 13.28121617 -13.95977503 11.93240069 -12.625 10.5625 C-11 9 -11 9 -9 9 C-9 8.34 -9 7.68 -9 7 C-8.34 7 -7.68 7 -7 7 C-7 6.34 -7 5.68 -7 5 C-4.75598043 3.05124617 -2.66363467 1.33181733 0 0 Z " fill="#4C3957" transform="translate(883,258)"/>
<path d="M0 0 C3.7342831 1.24476103 4.09728115 2.32936086 6.08203125 5.65234375 C6.67725586 6.64298828 7.27248047 7.63363281 7.88574219 8.65429688 C8.8394873 10.27948242 8.8394873 10.27948242 9.8125 11.9375 C10.80685059 13.61875977 10.80685059 13.61875977 11.82128906 15.33398438 C43.31403278 68.84096389 63.55918128 126.4335401 72 188 C72.16516113 189.14339844 72.33032227 190.28679687 72.50048828 191.46484375 C77.75093677 229.03785673 77.42103312 269.47058435 72 307 C71.82839355 308.25167969 71.65678711 309.50335937 71.47998047 310.79296875 C67.57389262 338.85815756 60.91450667 366.11438283 52 393 C51.66274902 394.01980957 51.32549805 395.03961914 50.97802734 396.09033203 C34.79341541 444.38300182 9.61312989 489.15224727 -22 529 C-22.42506836 529.53689453 -22.85013672 530.07378906 -23.28808594 530.62695312 C-27.88431837 536.40486088 -32.68296081 541.96929238 -37.6640625 547.41796875 C-38.91985612 548.80606169 -40.17003377 550.19990376 -41.3828125 551.62573242 C-46.6391171 557.78143841 -52.31167085 563.49778941 -58.03222656 569.2175293 C-59.73794598 570.92543056 -61.43549027 572.64118045 -63.1328125 574.35742188 C-68.99115089 580.24566712 -74.940031 585.7786491 -81.4543457 590.95141602 C-83.92048447 592.93601085 -86.27471727 595.00095189 -88.62109375 597.125 C-110.21994532 616.50698873 -135.81963275 631.81014513 -161 646 C-162.00788574 646.57838623 -162.00788574 646.57838623 -163.03613281 647.16845703 C-186.22757808 660.46513953 -213.87193666 673.1062149 -240 679 C-239.4016529 673.25826123 -237.85938366 668.26439718 -235.8828125 662.85546875 C-235.24455545 661.0710016 -234.60687772 659.28632716 -233.96972656 657.50146484 C-233.6425061 656.59039978 -233.31528564 655.67933472 -232.97814941 654.74066162 C-231.4280191 650.39737561 -229.92718721 646.03744249 -228.4296875 641.67578125 C-228.13668762 640.82257294 -227.84368774 639.96936462 -227.54180908 639.09030151 C-226.94913318 637.36300895 -226.35690856 635.63556148 -225.76513672 633.90795898 C-225.16968695 632.17174767 -224.57267072 630.43607283 -223.97412109 628.70092773 C-220.6314854 619.00946066 -217.3936093 609.31703631 -214.60348511 599.45002747 C-213.24164572 594.65743345 -211.54406633 590.21029899 -209.50390625 585.671875 C-207.95610288 581.89282263 -206.90059658 578.20543369 -205.9375 574.25 C-205.00913605 570.43960658 -204.21316619 567.31974928 -202 564 C-201.51722717 562.58655993 -201.09000209 561.15357694 -200.703125 559.7109375 C-200.46932129 558.85910889 -200.23551758 558.00728027 -199.99462891 557.12963867 C-199.74890137 556.22060791 -199.50317383 555.31157715 -199.25 554.375 C-196.58371564 544.7491625 -193.46159359 535.36594293 -190 526 C-189.34 526 -188.68 526 -188 526 C-187.91363281 525.29617188 -187.82726562 524.59234375 -187.73828125 523.8671875 C-186.54007638 515.44677533 -183.99624403 507.932364 -181 500 C-179.86894376 496.72958157 -178.82764057 493.44415104 -177.8515625 490.125 C-177.65046875 489.44953125 -177.449375 488.7740625 -177.2421875 488.078125 C-176.83135688 486.69482189 -176.42767833 485.30937415 -176.03125 483.921875 C-175.82757812 483.24640625 -175.62390625 482.5709375 -175.4140625 481.875 C-175.15036865 480.97394531 -175.15036865 480.97394531 -174.88134766 480.0546875 C-174 478 -174 478 -172.07324219 475.21972656 C-169.87095788 471.79959874 -168.59455626 468.46122139 -167.4140625 464.609375 C-167.19156326 463.9112822 -166.96906403 463.21318939 -166.73982239 462.49394226 C-166.02613235 460.24862196 -165.32545636 457.99947976 -164.625 455.75 C-164.13647982 454.20419785 -163.64697467 452.65870664 -163.15649414 451.11352539 C-162.43083422 448.82705486 -161.70580261 446.54041259 -160.98445129 444.25257874 C-158.99866267 437.95872438 -156.92208504 431.69816411 -154.75048828 425.46582031 C-153.34655302 421.35095032 -152.36314087 417.26200308 -151.54711914 413.00024414 C-151 411 -151 411 -149 408 C-148.19732955 405.48438427 -147.45456975 402.98030165 -146.75 400.4375 C-144.99172316 394.24068677 -143.04963454 388.14699767 -140.9375 382.0625 C-138.33517586 374.48084776 -136.49636318 366.86513437 -134.8671875 359.0234375 C-134.20557762 355.85559682 -133.38492899 352.78373702 -132.4375 349.6875 C-127.6189602 332.21105556 -127.52504296 314.15531157 -127.53125 296.16796875 C-127.52411447 293.60012149 -127.51641083 291.03227575 -127.50817871 288.46443176 C-127.49481033 283.09480719 -127.49293764 277.7253456 -127.49902344 272.35571289 C-127.50485553 266.95834156 -127.49013844 261.56159337 -127.45800781 256.16430664 C-127.26932392 224.13890895 -128.12923129 192.70880629 -132.15143585 160.91448116 C-132.84733377 155.41083807 -133.40004863 149.91630625 -133.77258301 144.37980652 C-134.12512225 140.6906574 -134.96092522 137.16531639 -135.8125 133.5625 C-136.08692934 128.34834252 -133.71404539 125.98829265 -130.4375 122.1875 C-129 121 -129 121 -126 120 C-125.01 118.515 -125.01 118.515 -124 117 C-122.8553125 116.319375 -122.8553125 116.319375 -121.6875 115.625 C-117.47857186 113.0800667 -114.49773457 109.65334741 -111.5 105.8125 C-108.93991227 102.9324013 -107.48311631 102.3179359 -104 101 C-103.74992188 100.44054687 -103.49984375 99.88109375 -103.2421875 99.3046875 C-101.4323584 95.94682848 -98.63670103 93.7401515 -95.8125 91.25 C-89.74113991 85.76928128 -84.15600167 80.24491887 -79.5625 73.4375 C-77.73748954 70.80361516 -75.77577136 68.81491228 -73.33203125 66.74609375 C-69.15123902 63.1512297 -65.12986175 59.41367488 -61.125 55.625 C-53.93649953 48.85665542 -46.71875612 42.13869376 -39.1875 35.75 C-36.30832033 33.2993494 -33.64290311 30.70736416 -31 28 C-26.4095419 23.31018134 -21.74220631 18.81391011 -16.7578125 14.54296875 C-15.32037286 13.28121617 -13.95977503 11.93240069 -12.625 10.5625 C-11 9 -11 9 -9 9 C-9 8.34 -9 7.68 -9 7 C-8.34 7 -7.68 7 -7 7 C-7 6.34 -7 5.68 -7 5 C-4.75598043 3.05124617 -2.66363467 1.33181733 0 0 Z " fill="#AE425E" transform="translate(883,258)"/>
<path d="M0 0 C8.61047769 6.01220446 15.80341853 13.59700796 23.125 21.0625 C24.82796871 22.79339021 26.5325232 24.52264404 28.24020386 26.24888611 C29.29174115 27.3123698 30.34060781 28.37850492 31.38601685 29.44801331 C34.10935136 32.2078198 36.90717497 34.81640762 39.84521484 37.34741211 C44.30399403 41.2075831 48.44836962 45.33956759 52.59375 49.53125 C53.38471069 50.32599731 54.17567139 51.12074463 54.99060059 51.9395752 C58.34018573 55.30535548 61.6837327 58.67711048 65.02783203 62.04833984 C67.48520939 64.52390227 69.94566058 66.99638083 72.40625 69.46875 C73.14919312 70.21999146 73.89213623 70.97123291 74.65759277 71.74523926 C78.00002507 75.10312746 81.36682578 78.36829522 84.95898438 81.45898438 C89.6197177 85.47518166 93.92377277 89.81687247 98.25 94.1875 C99.10754883 95.04883545 99.96509766 95.9101709 100.84863281 96.79760742 C104.48494939 100.45013983 108.11524371 104.10863635 111.74609375 107.76660156 C114.41197597 110.45065156 117.0809181 113.13163241 119.75 115.8125 C120.55856445 116.62936279 121.36712891 117.44622559 122.20019531 118.2878418 C126.43578168 122.54149506 130.75166411 126.62025211 135.30297852 130.53451538 C138.51662291 133.30969912 141.49758075 136.31330222 144.5 139.3125 C145.13164062 139.93189453 145.76328125 140.55128906 146.4140625 141.18945312 C147.00960937 141.78306641 147.60515625 142.37667969 148.21875 142.98828125 C148.75435547 143.51977783 149.28996094 144.05127441 149.84179688 144.59887695 C151 146 151 146 151 148 C154.9577764 144.61790017 158.85099458 141.21642354 162.5 137.5 C164.83025445 135.12775898 167.22104406 132.90886483 169.75 130.75 C173.15838524 127.8172034 176.34398464 124.69926326 179.5 121.5 C182.532835 118.425944 185.5793945 115.4200072 188.875 112.625 C192.61543197 109.4387061 196.04804038 105.99120315 199.5 102.5 C203.50912579 98.4453483 207.55864504 94.56021848 211.91015625 90.87109375 C215.27496075 87.85849309 218.40545188 84.61427958 221.57836914 81.40209961 C224.88599763 78.06940938 228.29656607 74.94791884 231.875 71.90625 C235.24700287 68.88136507 238.38914781 65.63087211 241.5715332 62.40893555 C244.94584645 59.00897432 248.4249718 55.81229108 252.07421875 52.70703125 C254.31136611 50.72400205 256.40054652 48.62806614 258.5 46.5 C261.1877846 43.7755846 263.89816863 41.16739688 266.8125 38.6875 C270.38898764 35.62499861 273.69390411 32.3472037 277 29 C280.89536687 25.05619836 284.85028668 21.29310758 289.08203125 17.70703125 C291.29441922 15.7379609 293.32072993 13.63314257 295.375 11.5 C305.55855257 1.26422408 316.86056295 -5.42829513 331.5 -5.625 C342.86151096 -5.48326013 352.66881084 -1.89933487 361 6 C370.25689492 15.71308687 372.60623345 26.0344491 372.5146637 39.15356445 C372.52160922 40.43587637 372.52855475 41.71818829 372.53571075 43.03935814 C372.55421861 46.56945473 372.54807448 50.09912841 372.53755772 53.6292417 C372.53053121 57.44816139 372.54659017 61.26699718 372.55955505 65.08589172 C372.58114708 72.55783149 372.5810798 80.02961866 372.57292951 87.50157934 C372.56661492 93.58145111 372.56777991 99.66127858 372.57420158 105.7411499 C372.57510324 106.60841257 372.57600489 107.47567523 372.57693387 108.36921859 C372.57878521 110.13146783 372.58064777 111.89371706 372.58252143 113.65596628 C372.59908497 130.16713352 372.59039494 146.67821522 372.57353585 163.18937731 C372.55885923 178.25909037 372.5734411 193.32860367 372.60230602 208.39829099 C372.63178203 223.90365285 372.64264725 239.40892279 372.63312382 254.91431141 C372.63210136 256.67231558 372.63110675 258.43031977 372.6301403 260.18832397 C372.62966391 261.05310031 372.62918752 261.91787665 372.6286967 262.80885834 C372.62654234 268.86948506 372.63628492 274.93002385 372.65091133 280.9906311 C372.66853088 288.39437629 372.66818154 295.7978676 372.64555968 303.20160323 C372.63450065 306.97118486 372.63106178 310.74032085 372.64986038 314.50988197 C372.75459078 337.18281259 372.45995751 357.11364039 356.1015625 374.2265625 C354.28376961 376.03384792 352.45808355 377.83322538 350.625 379.625 C349.7175 380.52734375 348.81 381.4296875 347.875 382.359375 C343.33901378 386.84307319 338.72592304 391.16376564 333.88964844 395.31982422 C329.84792543 398.91351126 326.13999031 402.86153175 322.38085938 406.74609375 C317.94008804 411.26477336 314.57238145 414.67334839 308.0625 415.5 C303.33552137 415.338853 301.23389894 413.31277453 298 410 C296.76259688 407.52519377 296.87578185 405.90014929 296.87695217 403.13116264 C296.87496112 402.09609546 296.87297007 401.06102827 296.87091869 399.99459541 C296.87383153 398.8487004 296.87674437 397.70280538 296.87974548 396.52218628 C296.87846385 394.70652576 296.87846385 394.70652576 296.87715632 392.85418522 C296.87578957 389.48381659 296.87893162 386.11350549 296.88393438 382.7431438 C296.88823975 379.11260651 296.88679239 375.4820711 296.8860321 371.85153198 C296.88550692 365.55786592 296.8886531 359.26421019 296.89426994 352.97054672 C296.90238575 343.87088752 296.90500025 334.77123334 296.90625793 325.67157091 C296.90844833 310.90913689 296.91510807 296.14670837 296.92456055 281.38427734 C296.93373499 267.04117867 296.94081567 252.69808149 296.94506836 238.35498047 C296.94546244 237.0295426 296.94546244 237.0295426 296.94586449 235.67732821 C296.9471695 231.2445844 296.94843321 226.81184058 296.94967639 222.37909675 C296.96004861 185.5860606 296.97766658 148.79303073 297 112 C295.74413428 113.0876838 294.48990037 114.17725185 293.23632812 115.26757812 C292.53769653 115.87412231 291.83906494 116.4806665 291.1192627 117.10559082 C287.77151051 120.0981469 284.64261219 123.2950523 281.5 126.5 C277.17908303 130.86747515 272.85299477 135.1063392 268.15234375 139.06640625 C264.32041767 142.50888068 260.75498084 146.22666402 257.13256836 149.88696289 C253.60521622 153.43702635 250.01118184 156.8008981 246.1875 160.03125 C243.00179249 162.89838676 240.01415242 165.95431879 237 169 C232.85491669 173.18844192 228.69083641 177.22670717 224.1875 181.03125 C220.39287509 184.44641242 216.84391478 188.11645357 213.2734375 191.76367188 C210.33946185 194.74118826 207.36154464 197.5909798 204.1875 200.3125 C199.20029152 204.61745067 194.62096475 209.30902063 190 214 C184.72037487 219.35961945 179.43929273 224.62412334 173.72412109 229.52099609 C170.7992672 232.03002539 167.99660727 234.67591755 165.17578125 237.30078125 C160.95291073 240.59871425 157.04241742 241.3465966 151.75 241.5 C150.69296875 241.5515625 149.6359375 241.603125 148.546875 241.65625 C137.20569942 239.55788271 128.59605982 227.95907184 120.859375 220.1171875 C119.40521477 218.65487807 117.95030694 217.19331173 116.49468994 215.73245239 C112.68271386 211.90344089 108.87941395 208.06593379 105.07836914 204.22607422 C98.98368301 198.0719558 92.87608786 191.93065441 86.76795197 185.78989029 C84.64198034 183.65000621 82.51989563 181.50632735 80.39837646 179.36203003 C79.09346844 178.04709616 77.78848006 176.73224204 76.48339844 175.41748047 C75.89836548 174.8241391 75.31333252 174.23079773 74.71057129 173.61947632 C71.62078972 170.51303733 68.46782776 167.69147919 65 165 C63.30611876 163.35417745 61.65053511 161.68823694 60 160 C58.51759462 158.51479602 57.03360632 157.03117133 55.54858398 155.54858398 C41.36572266 141.36572266 27.18286133 127.18286133 13 113 C13.00151888 113.61981676 13.00303776 114.23963351 13.00460267 114.8782326 C13.09409175 151.60386337 13.16273447 188.32947803 13.20426132 225.05519549 C13.20926422 229.46371775 13.2144415 233.87223979 13.21972656 238.28076172 C13.2207758 239.1584286 13.22182505 240.03609548 13.22290608 240.94035833 C13.24031699 255.15623093 13.27185845 269.37203892 13.30861118 283.58787318 C13.34600153 298.17183816 13.36823181 312.75576926 13.37635398 327.33978021 C13.38184572 336.3407867 13.39919827 345.34161054 13.43166587 354.34256081 C13.45279023 360.51269768 13.45920477 366.68273995 13.45400551 372.85291035 C13.45144047 376.4141976 13.45540533 379.97516541 13.4768219 383.53639603 C13.49986791 387.39674797 13.49196095 391.25668264 13.48101807 395.11709595 C13.49849512 396.80678857 13.49849512 396.80678857 13.51632524 398.5306164 C13.46924363 404.65547846 13.17998578 408.38431002 9 413 C5.9334811 415.04434593 4.85950668 415.38988272 1.3125 415.5625 C0.10013672 415.65724609 0.10013672 415.65724609 -1.13671875 415.75390625 C-10.32099552 413.33567239 -17.87246782 402.20073284 -24.43652344 395.54296875 C-30.1076322 389.79830977 -35.85198649 384.23591556 -42 379 C-54.48793185 367.81422856 -60.70759394 354.72103676 -62 338 C-62.14267217 333.71538698 -62.14784063 329.43372701 -62.14717102 325.14700317 C-62.15084771 323.87300624 -62.1545244 322.5990093 -62.1583125 321.2864064 C-62.16825992 317.77068464 -62.17203743 314.25497995 -62.17470181 310.73924613 C-62.17862622 306.93956015 -62.18820249 303.13988741 -62.19691467 299.34020996 C-62.21661204 290.17809613 -62.22673363 281.0159813 -62.23564246 271.85385162 C-62.24003367 267.53378116 -62.24539805 263.21371192 -62.25063133 258.89364243 C-62.26763172 244.52626614 -62.28212701 230.1588906 -62.28938007 215.79150581 C-62.29128977 212.06917444 -62.29321014 208.34684307 -62.29516602 204.62451172 C-62.29564976 203.69941484 -62.2961335 202.77431796 -62.2966319 201.82118784 C-62.30493684 186.82681171 -62.3302869 171.83251522 -62.36274669 156.83817388 C-62.39583413 141.42785514 -62.41383008 126.01757688 -62.41702431 110.60722244 C-62.41918711 101.96112166 -62.42790279 93.31513728 -62.45348549 84.6690712 C-62.47521495 77.30864921 -62.48323162 69.94837195 -62.47351871 62.58792152 C-62.46898141 58.83558929 -62.47082692 55.08355557 -62.49028015 51.3312645 C-62.51122338 47.25628892 -62.50090365 43.18197219 -62.48774719 39.10696411 C-62.49871644 37.93116858 -62.50968568 36.75537304 -62.52098733 35.54394734 C-62.43000513 23.84715839 -59.14226228 14.51236511 -51 6 C-36.95176044 -7.18654457 -16.9765845 -9.3449089 0 0 Z " fill="#FDFDFD" transform="translate(361,311)"/>
<path d="M0 0 C9.44247158 0.51696836 18.5736132 2.07015337 27.8125 4 C28.54821228 4.15272369 29.28392456 4.30544739 30.04193115 4.46279907 C74.43218282 13.75321396 117.95140126 29.78325982 157 53 C157.89235352 53.52561523 158.78470703 54.05123047 159.70410156 54.59277344 C184.40845773 69.18890972 207.01484164 85.91262974 228.75 104.625 C229.67111572 105.4145105 229.67111572 105.4145105 230.61083984 106.2199707 C234.30022134 109.41647311 237.77275809 112.75254485 241.19506836 116.23193359 C243.0531734 118.05208735 244.98131453 119.74622312 246.95703125 121.4375 C251.13931966 125.05135133 254.9254633 128.95522347 258.6875 133 C259.37666504 133.73766602 260.06583008 134.47533203 260.77587891 135.23535156 C271.11597102 146.36423614 280.96432675 157.78072375 290 170 C290.82177734 171.10674072 290.82177734 171.10674072 291.66015625 172.23583984 C293.44830547 174.65131504 295.2259694 177.07414015 297 179.5 C297.56460937 180.26610596 298.12921875 181.03221191 298.7109375 181.8215332 C301.32391894 185.42673061 303.63690654 188.70625559 305 193 C304.195625 193.268125 303.39125 193.53625 302.5625 193.8125 C301.716875 194.204375 300.87125 194.59625 300 195 C299.67 195.99 299.34 196.98 299 198 C298.34 198 297.68 198 297 198 C297 198.66 297 199.32 297 200 C296.34 200 295.68 200 295 200 C295 200.66 295 201.32 295 202 C293.77734375 203.234375 293.77734375 203.234375 291.9375 204.75 C288.95697328 207.26951 286.06775876 209.85651061 283.234375 212.5390625 C282.56929932 213.16844727 281.90422363 213.79783203 281.21899414 214.44628906 C279.87376671 215.72345487 278.53175363 217.00401561 277.19311523 218.28808594 C276.56606689 218.88137695 275.93901855 219.47466797 275.29296875 220.0859375 C274.7311792 220.6226709 274.16938965 221.1594043 273.59057617 221.71240234 C272 223 272 223 269 224 C268.67 224.99 268.34 225.98 268 227 C266.29296875 228.75390625 266.29296875 228.75390625 264.1875 230.5625 C263.50042969 231.16191406 262.81335938 231.76132812 262.10546875 232.37890625 C260 234 260 234 257.86328125 234.96484375 C255.49432233 236.28093204 255.11867252 237.57851133 254 240 C252.58203125 241.4296875 252.58203125 241.4296875 250.8125 242.875 C247.8865296 245.33755704 245.05444401 247.86820249 242.27734375 250.49609375 C241.61565186 251.12209473 240.95395996 251.7480957 240.2722168 252.39306641 C238.93851657 253.65897866 237.60787315 254.92812031 236.28051758 256.20068359 C235.34502075 257.08554443 235.34502075 257.08554443 234.390625 257.98828125 C233.5557959 258.78552612 233.5557959 258.78552612 232.70410156 259.59887695 C230.90184726 261.0807018 229.11880257 262.03809141 227 263 C227 263.66 227 264.32 227 265 C223.54761698 263.84920566 223.30716694 263.3275251 221.546875 260.31640625 C221.09618652 259.55875977 220.64549805 258.80111328 220.18115234 258.02050781 C219.70887207 257.20936523 219.2365918 256.39822266 218.75 255.5625 C217.76023928 253.9008958 216.76806638 252.24072598 215.7734375 250.58203125 C215.29487305 249.78361816 214.81630859 248.98520508 214.32324219 248.16259766 C212.27160194 244.80956642 210.00841749 241.63082291 207.71484375 238.44140625 C205.30792983 235.01470648 203.07939303 231.47999771 200.82983398 227.94873047 C195.53220289 219.66339854 190.03265193 211.51080564 184.56396484 203.33789062 C182.62259509 200.4358368 180.68585005 197.53073842 178.75 194.625 C178.14671875 193.72007812 177.5434375 192.81515625 176.921875 191.8828125 C142.875 140.8125 142.875 140.8125 140.91015625 137.86328125 C139.67038693 136.00489492 138.42833214 134.14803049 137.18359375 132.29296875 C133.06638217 126.14723539 129.02124752 119.95880618 125 113.75 C120.01977885 106.06251388 114.96698246 98.42637533 109.875 90.8125 C104.8360184 83.27787513 99.84712462 75.71656995 94.94311523 68.09350586 C89.28662468 59.3147261 83.45655296 50.65114059 77.64355469 41.97558594 C76.78188499 40.6891948 75.92102514 39.40226078 75.06103516 38.11474609 C74.2365048 36.88327116 73.40812072 35.65436672 72.57568359 34.42822266 C70.51036342 31.36630881 68.56860157 28.28687079 66.765625 25.0625 C62.26959677 16.93814988 62.26959677 16.93814988 54.25 12.6875 C52.5070508 12.40974932 50.75591672 12.17825215 49 12 C48.12085938 11.80792969 47.24171875 11.61585937 46.3359375 11.41796875 C43.94205177 10.82918065 43.94205177 10.82918065 41.375 11.625 C40.199375 11.810625 40.199375 11.810625 39 12 C37.5625 10.6875 37.5625 10.6875 36 9 C31.12047433 6.9182659 26.93835045 6.78070919 21.75 6.9375 C14.23846154 7.11923077 14.23846154 7.11923077 12 6 C12 5.34 12 4.68 12 4 C11.34 4 10.68 4 10 4 C10 3.34 10 2.68 10 2 C7.03 2 4.06 2 1 2 C0.67 1.34 0.34 0.68 0 0 Z " fill="#25BBAB" transform="translate(579,65)"/>
<path d="M0 0 C3.7342831 1.24476103 4.09728115 2.32936086 6.08203125 5.65234375 C6.67725586 6.64298828 7.27248047 7.63363281 7.88574219 8.65429688 C8.8394873 10.27948242 8.8394873 10.27948242 9.8125 11.9375 C10.80685059 13.61875977 10.80685059 13.61875977 11.82128906 15.33398438 C43.31403278 68.84096389 63.55918128 126.4335401 72 188 C72.16516113 189.14339844 72.33032227 190.28679687 72.50048828 191.46484375 C75.12901567 210.27498805 75.28490328 229.03815319 75.3125 248 C75.31617584 249.21298767 75.31985168 250.42597534 75.32363892 251.67572021 C75.34874581 267.5532128 74.69206308 283.20991653 73 299 C69.91344475 296.04275166 67.65784541 292.67559653 65.31640625 289.12109375 C64.86079819 288.43555923 64.40519012 287.75002472 63.93577576 287.04371643 C62.47474373 284.8437956 61.01851918 282.64074098 59.5625 280.4375 C58.61816211 279.01345725 57.6735034 277.5896272 56.72851562 276.16601562 C54.80188403 273.2628199 52.87688573 270.35855037 50.95288086 267.45361328 C44.40017502 257.56486868 37.80619555 247.70350637 31.21723938 237.83889771 C17.85801476 217.83714722 4.54222559 197.8086062 -8.65307617 177.69824219 C-14.36142101 168.99938548 -20.10038159 160.3222808 -25.88253784 151.67230225 C-27.51646807 149.22709623 -29.14678223 146.77948454 -30.77734375 144.33203125 C-33.18468366 140.72071978 -35.59373918 137.11056404 -38.00439453 133.50146484 C-44.63846199 123.5692346 -51.26604965 113.63275772 -57.88105774 103.68782043 C-60.922111 99.11686878 -63.96912276 94.55012822 -67.02980042 89.99229431 C-68.79846406 87.35419201 -70.55472565 84.70786557 -72.3125 82.0625 C-72.92746338 81.15395264 -73.54242676 80.24540527 -74.17602539 79.30932617 C-74.98027954 78.09079956 -74.98027954 78.09079956 -75.80078125 76.84765625 C-76.48394409 75.8268396 -76.48394409 75.8268396 -77.1809082 74.78540039 C-78 73 -78 73 -77 70 C-75.42919922 68.43505859 -75.42919922 68.43505859 -73.4296875 66.7734375 C-69.19933932 63.18376566 -65.15463421 59.4371101 -61.125 55.625 C-53.93649953 48.85665542 -46.71875612 42.13869376 -39.1875 35.75 C-36.30832033 33.2993494 -33.64290311 30.70736416 -31 28 C-26.4095419 23.31018134 -21.74220631 18.81391011 -16.7578125 14.54296875 C-15.32037286 13.28121617 -13.95977503 11.93240069 -12.625 10.5625 C-11 9 -11 9 -9 9 C-9 8.34 -9 7.68 -9 7 C-8.34 7 -7.68 7 -7 7 C-7 6.34 -7 5.68 -7 5 C-4.75598043 3.05124617 -2.66363467 1.33181733 0 0 Z " fill="#E0A937" transform="translate(883,258)"/>
<path d="M0 0 C0.66525696 -0.00335861 1.33051392 -0.00671722 2.01593018 -0.01017761 C4.22116958 -0.01969711 6.4263331 -0.02163141 8.6315918 -0.02270508 C10.16375256 -0.02591767 11.69591301 -0.02928174 13.22807312 -0.03279114 C16.44355988 -0.03878539 19.65901976 -0.0406308 22.87451172 -0.04003906 C26.99035563 -0.03993758 31.10602648 -0.05357377 35.22182941 -0.07081127 C38.38830859 -0.08194448 41.55474616 -0.08395784 44.7212429 -0.08342934 C46.23825869 -0.08460807 47.7552756 -0.08902391 49.27227211 -0.0967617 C51.39778266 -0.10658557 53.52292064 -0.10367397 55.6484375 -0.09765625 C56.85707962 -0.09908127 58.06572174 -0.10050629 59.31098938 -0.10197449 C63.7721171 0.24191406 66.51284524 1.05328605 69.5612793 4.36401367 C71.71439939 7.42393683 73.81584454 10.49204448 75.83081055 13.64526367 C76.54881836 14.74870117 77.26682617 15.85213867 78.0065918 16.98901367 C79.51831055 20.14526367 79.51831055 20.14526367 78.51831055 25.14526367 C56.73831055 25.14526367 34.95831055 25.14526367 12.51831055 25.14526367 C19.32326999 37.05956779 19.32326999 37.05956779 26.51831055 48.70776367 C27.54435408 50.33015832 28.57039574 51.95255416 29.59643555 53.57495117 C31.3882654 56.39386258 33.20696109 59.19005649 35.06518555 61.96557617 C35.4415918 62.54106201 35.81799805 63.11654785 36.20581055 63.70947266 C37.18829722 65.21051905 38.18848772 66.69993748 39.19018555 68.18823242 C40.90605656 72.00856877 41.42141166 75.08715544 40.51831055 79.14526367 C38.82340371 82.7604879 36.64563051 85.9806279 34.39331055 89.27026367 C33.24377107 91.00130321 32.09540288 92.73312096 30.94799805 94.46557617 C29.48620117 96.66987305 28.0244043 98.87416992 26.51831055 101.14526367 C21.89831055 108.40526367 17.27831055 115.66526367 12.51831055 123.14526367 C34.29831055 123.14526367 56.07831055 123.14526367 78.51831055 123.14526367 C79.6437893 128.77265743 79.6437893 128.77265743 77.53393555 132.02807617 C76.87264648 133.06641602 76.87264648 133.06641602 76.19799805 134.12573242 C75.49030273 135.18727539 75.49030273 135.18727539 74.76831055 136.27026367 C74.31198242 136.98569336 73.8556543 137.70112305 73.38549805 138.43823242 C68.00661785 146.75528706 68.00661785 146.75528706 64.32977295 147.71871948 C61.14474377 148.20193978 58.10182275 148.28749625 54.87963867 148.30639648 C54.23345078 148.31136139 53.58726288 148.31632629 52.92149353 148.32144165 C50.79750481 148.33597106 48.67359066 148.34284803 46.54956055 148.34838867 C45.06652832 148.3541456 43.58349609 148.35990326 42.10046387 148.36566162 C38.99706681 148.37614386 35.89369546 148.38200536 32.7902832 148.38549805 C28.81905674 148.39099174 24.84817157 148.41504979 20.87705231 148.44347 C17.81609099 148.46211165 14.75521189 148.46730268 11.69419861 148.46883392 C10.23020044 148.4718551 8.76620354 148.47986558 7.30226135 148.4930191 C5.25357111 148.51012026 3.20571555 148.50819065 1.15698242 148.50170898 C-0.58911316 148.50717743 -0.58911316 148.50717743 -2.3704834 148.51275635 C-5.85599823 148.10105068 -7.69404555 147.24565827 -10.48168945 145.14526367 C-12.46128456 142.175871 -12.88698344 140.94079414 -13.29418945 137.52026367 C-13.40375977 136.72362305 -13.51333008 135.92698242 -13.6262207 135.10620117 C-13.21084515 126.5966155 -8.75000864 119.8773637 -4.16918945 112.95776367 C-2.91775338 111.02816307 -1.66645557 109.09847278 -0.4152832 107.16870117 C0.22940918 106.18224609 0.87410156 105.19579102 1.53833008 104.17944336 C4.81024196 99.16547037 8.0414814 94.12582094 11.26831055 89.08276367 C12.16223511 87.70084839 12.16223511 87.70084839 13.07421875 86.29101562 C13.62811279 85.42694092 14.18200684 84.56286621 14.75268555 83.67260742 C15.23962891 82.91713623 15.72657227 82.16166504 16.22827148 81.38330078 C18.24336214 77.92101503 18.24336214 77.92101503 19.51831055 74.14526367 C18.43443951 71.20493553 18.43443951 71.20493553 16.4519043 68.27026367 C15.93402596 67.43347832 15.93402596 67.43347832 15.40568542 66.57978821 C14.27231349 64.7572911 13.11422572 62.95192396 11.95581055 61.14526367 C11.16995733 59.88884199 10.38595242 58.63126244 9.60375977 57.37255859 C7.26323315 53.6164958 4.89311971 49.87971111 2.51831055 46.14526367 C0.61222667 43.13865684 -1.29147592 40.13076969 -3.18457031 37.1159668 C-4.26492457 35.3985048 -5.35494838 33.68707049 -6.45654297 31.9831543 C-11.26662437 24.37805764 -14.34037814 17.47664509 -13.06762695 8.38354492 C-12.24652306 5.24692805 -10.82593866 3.34743717 -8.48168945 1.14526367 C-5.62656833 -0.28229689 -3.19169981 0.01008585 0 0 Z " fill="#FDFDFD" transform="translate(477.481689453125,579.854736328125)"/>
<path d="M0 0 C0.99 0.495 0.99 0.495 2 1 C1.50371094 1.4846875 1.00742187 1.969375 0.49609375 2.46875 C-2.95622333 5.87521088 -6.30568789 9.29475751 -9.4375 13 C-12.63948125 16.7307488 -16.16207125 19.93861898 -19.88671875 23.140625 C-22.88970685 25.78281047 -25.64642048 28.63735434 -28.4375 31.5 C-31 34 -31 34 -33.5625 36 C-36.11550628 37.94999687 -36.11550628 37.94999687 -38.125 40.6875 C-40 43 -40 43 -43 44 C-43.66 44.99 -44.32 45.98 -45 47 C-45.78375 47.433125 -46.5675 47.86625 -47.375 48.3125 C-50.8627435 50.55462082 -52.24231879 52.2142251 -54 56 C-54.09500873 60.37040151 -53.61208332 64.6572303 -52.50622559 68.88993835 C-51.98829872 71.04877354 -51.69073502 73.14124209 -51.44335938 75.34692383 C-51.29815857 76.62524834 -51.29815857 76.62524834 -51.15002441 77.92939758 C-51.04895386 78.84601669 -50.9478833 79.7626358 -50.84375 80.70703125 C-50.7365564 81.66461838 -50.62936279 82.62220551 -50.5189209 83.60881042 C-50.29233039 85.64034033 -50.06714685 87.67202759 -49.84326172 89.70385742 C-49.50542471 92.76337284 -49.16124044 95.82212573 -48.81640625 98.88085938 C-48.59596496 100.86454012 -48.37590172 102.84826292 -48.15625 104.83203125 C-48.05517944 105.72638382 -47.95410889 106.62073639 -47.84997559 107.54219055 C-46.03612068 124.16079641 -45.80792997 140.6623225 -45.76171875 157.36328125 C-45.75764322 158.61891562 -45.7535677 159.87454998 -45.74936867 161.16823387 C-45.73074079 167.13764132 -45.71615262 173.10702486 -45.7077567 179.07645351 C-45.69802681 185.87424195 -45.67178483 192.67170115 -45.63125581 199.469374 C-45.5969703 205.43283887 -45.58557291 211.3962272 -45.58155251 217.35979271 C-45.57675003 219.85867734 -45.56532338 222.3575601 -45.54651451 224.85637856 C-45.37880084 248.61822923 -48.2833824 271.20033157 -55 294 C-55.41834347 295.44911062 -55.8363145 296.89832882 -56.25390625 298.34765625 C-57.07111311 301.16564404 -57.90277884 303.97878325 -58.74609375 306.7890625 C-59.61701706 309.69395604 -60.46020758 312.60515812 -61.28515625 315.5234375 C-64.81438896 327.93558087 -64.81438896 327.93558087 -67.0625 332.625 C-69.08021413 336.83657792 -70.15594055 341.15859469 -71.30029297 345.67529297 C-73.42411784 353.89339842 -76.22727008 361.87940122 -78.95996094 369.91064453 C-80.12112086 373.35978013 -81.25357203 376.81762985 -82.3828125 380.27734375 C-82.78604736 381.50678711 -83.18928223 382.73623047 -83.60473633 384.00292969 C-84.40049347 386.4305761 -85.19210177 388.85958699 -85.97924805 391.29003906 C-86.3431665 392.39444336 -86.70708496 393.49884766 -87.08203125 394.63671875 C-87.40405518 395.62373779 -87.7260791 396.61075684 -88.05786133 397.62768555 C-89 400 -89 400 -91 402 C-90.27690458 396.33731766 -88.56422894 391.09649488 -86.8125 385.6875 C-86.34710815 384.23512939 -86.34710815 384.23512939 -85.87231445 382.75341797 C-83.69223641 376.00045266 -81.40387197 369.29172566 -78.9543457 362.6315918 C-77.31734812 358.12912718 -76.12114788 353.64960895 -75 349 C-74.354876 346.99294757 -73.69643985 344.98982813 -73 343 C-74.65 343.66 -76.3 344.32 -78 345 C-77.67386719 344.28457031 -77.34773437 343.56914063 -77.01171875 342.83203125 C-70.9515913 329.01351054 -68.85737417 315.46764858 -68.84178162 300.50267029 C-68.83684364 299.48225948 -68.83190566 298.46184867 -68.82681805 297.41051632 C-68.81153127 294.01122792 -68.80310647 290.61195828 -68.79467773 287.21264648 C-68.78509227 284.76799863 -68.7750818 282.3233524 -68.76467896 279.87870789 C-68.74327867 274.62575917 -68.72482058 269.37280897 -68.70907402 264.11984062 C-68.68630237 256.52505353 -68.65816994 248.93029362 -68.62875474 241.33552969 C-68.5811679 229.01170306 -68.53787977 216.68786527 -68.49731445 204.36401367 C-68.45791407 192.39688245 -68.41647706 180.42976112 -68.37231445 168.46264648 C-68.36959018 167.72423609 -68.36686591 166.9858257 -68.36405908 166.22503924 C-68.35037886 162.52042515 -68.33665873 158.81581122 -68.32291877 155.11119735 C-68.20909404 124.40748543 -68.10232588 93.70375253 -68 63 C-66.35 62.34 -64.7 61.68 -63 61 C-63 60.34 -63 59.68 -63 59 C-62.34 59 -61.68 59 -61 59 C-61 58.34 -61 57.68 -61 57 C-59.53344727 55.53710938 -59.53344727 55.53710938 -57.50390625 53.84375 C-53.1967176 50.18031682 -49.05520347 46.37407601 -44.9375 42.5 C-44.26912109 41.87480469 -43.60074219 41.24960937 -42.91210938 40.60546875 C-39.04664605 36.97666645 -35.2659245 33.27931326 -31.52954102 29.51806641 C-29.74718579 27.7490824 -27.90388955 26.07468089 -26 24.4375 C-25.00033203 23.57318359 -25.00033203 23.57318359 -23.98046875 22.69140625 C-22.69365603 21.59241235 -21.40470793 20.4959121 -20.11328125 19.40234375 C-19.51902344 18.89832031 -18.92476562 18.39429688 -18.3125 17.875 C-17.79300781 17.43929688 -17.27351562 17.00359375 -16.73828125 16.5546875 C-14.39709389 14.46077161 -12.20932791 12.23234174 -10 10 C-6.66666667 6.66666667 -3.33333333 3.33333333 0 0 Z " fill="#793B4F" transform="translate(802,332)"/>
<path d="M0 0 C3.39815137 1.13271712 4.28644916 2.1909314 6.5625 4.875 C7.16191406 5.57367188 7.76132812 6.27234375 8.37890625 6.9921875 C10 9 10 9 12 12 C9.50638429 10.79618552 7.31856917 9.54571278 5 8 C4.1512127 11.67094488 3.88455042 15.03621229 3.90756226 18.800354 C3.91156855 19.99092281 3.91557484 21.18149162 3.91970253 22.40813828 C3.92412463 23.05532554 3.92854674 23.70251281 3.93310285 24.36931181 C3.95776151 28.07237657 3.96384443 31.77550955 3.97381592 35.4786377 C3.97652752 36.30135501 3.97923912 37.12407232 3.9820329 37.97172046 C4.01578234 49.03036681 3.97404016 60.08885756 3.93994141 71.14746094 C3.93322568 73.46708286 3.92654997 75.78670491 3.91991234 78.10632706 C3.85996117 98.73115076 3.78795105 119.35593693 3.71247292 139.98070908 C3.70248889 142.7172825 3.69253819 145.45385604 3.68261719 148.19042969 C3.68015119 148.87026044 3.6776852 149.5500912 3.67514448 150.25052288 C3.63510281 161.34805916 3.60246438 172.44560574 3.57250018 183.54317328 C3.54141049 195.00147009 3.50269709 206.45971717 3.45720994 217.91796708 C3.43199545 224.32669519 3.41019467 230.73539311 3.39665604 237.14415741 C3.38386325 243.14289476 3.36183947 249.14152625 3.33261681 255.14020538 C3.32353198 257.34087483 3.3178487 259.5415613 3.31578636 261.74224854 C3.31247169 264.74070109 3.29701764 267.73885229 3.2784729 270.73724365 C3.28040763 271.6106514 3.28234237 272.48405914 3.28433573 273.38393378 C3.24424666 277.70520684 3.01348096 281.06343236 1 285 C0.67 285 0.34 285 0 285 C0 190.95 0 96.9 0 0 Z " fill="#1D5F68" transform="translate(375,425)"/>
<path d="M0 0 C0.33 0 0.66 0 1 0 C1.04573647 39.33072435 1.08099835 78.66144525 1.10213066 117.99219086 C1.1046322 122.63118718 1.10722083 127.27018345 1.10986328 131.90917969 C1.11065021 133.2945427 1.11065021 133.2945427 1.11145304 134.70789285 C1.12016547 149.67979185 1.13594003 164.65167556 1.15430559 179.62356548 C1.17298138 194.97592265 1.18411179 210.3282718 1.18817699 225.68063986 C1.19092688 235.16066485 1.19962499 244.64064661 1.21583293 254.12065829 C1.22637119 260.61359795 1.22960783 267.10651513 1.22700275 273.59946273 C1.22571651 277.35053376 1.2277451 281.10152905 1.23841095 284.85258675 C1.24986796 288.91132676 1.24599827 292.96990364 1.24050903 297.02865601 C1.24633472 298.22513335 1.2521604 299.42161069 1.25816262 300.65434492 C1.25418052 301.73469625 1.25019842 302.81504758 1.24609566 303.92813683 C1.24723482 305.33500065 1.24723482 305.33500065 1.24839699 306.77028596 C1 309 1 309 -1 311 C-1.17988899 302.35441061 -1.34484541 293.70856759 -1.5 285.0625 C-1.51202454 284.39355461 -1.52404907 283.72460922 -1.53643799 283.03539276 C-1.98202825 258.0008027 -2.05385267 232.97542028 -1.98773193 207.93746948 C-1.93836494 188.82071287 -2.08170139 169.73608151 -2.625 150.625 C-2.98883337 137.76006471 -3.00344958 125.19713467 -1.76660156 112.3684082 C-0.52467626 99.27414968 -0.82067818 86.13877152 -1 73 C-1.33 73 -1.66 73 -2 73 C-2 58.15 -2 43.3 -2 28 C-2.33 28 -2.66 28 -3 28 C-2.54362211 18.53616378 -1.81847768 9.32190498 0 0 Z " fill="#1F6471" transform="translate(298,337)"/>
<path d="M0 0 C0 96.69 0 193.38 0 293 C-0.33 293 -0.66 293 -1 293 C-1 209.84 -1 126.68 -1 41 C-2.98 41.99 -2.98 41.99 -5 43 C-4.67475342 42.49098145 -4.34950684 41.98196289 -4.0144043 41.45751953 C-2.63437227 38.11422173 -2.75817424 35.29210652 -2.76953125 31.6796875 C-2.76998947 30.9798172 -2.77044769 30.2799469 -2.7709198 29.55886841 C-2.77393246 28.08463843 -2.7817892 26.61041137 -2.79418945 25.13623047 C-2.81249302 22.87586241 -2.81469866 20.61590333 -2.81445312 18.35546875 C-2.41792607 11.46940607 -2.41792607 11.46940607 -4 5 C-4.59538574 5.60585938 -5.19077148 6.21171875 -5.80419922 6.8359375 C-8.0104851 9.07625904 -10.22120439 11.31208093 -12.43505859 13.54492188 C-13.39324956 14.51318538 -14.34963982 15.48323426 -15.30419922 16.45507812 C-16.6746382 17.8497097 -18.05206367 19.23746521 -19.4296875 20.625 C-20.25710449 21.46289062 -21.08452148 22.30078125 -21.93701172 23.1640625 C-24 25 -24 25 -26 25 C-26.25136719 25.5775 -26.50273438 26.155 -26.76171875 26.75 C-28.15763575 29.28642963 -29.7461159 30.97707714 -31.8125 33 C-32.52277344 33.69609375 -33.23304688 34.3921875 -33.96484375 35.109375 C-36 37 -36 37 -38.875 39.25 C-41.08610372 40.81070183 -41.08610372 40.81070183 -41.89453125 42.95703125 C-43.23019479 45.42541298 -44.38766273 46.06537502 -46.8125 47.4375 C-51.37833823 50.33762526 -55.11577356 53.76944846 -58.9375 57.5625 C-59.50509033 58.11671631 -60.07268066 58.67093262 -60.6574707 59.24194336 C-63.76140266 62.37862214 -65.408464 64.84472275 -67 69 C-68.8046875 70.40625 -68.8046875 70.40625 -70.875 71.5 C-74.46380669 73.55628924 -76.47742666 75.69455907 -79 79 C-80.65661761 80.01656081 -82.32111559 81.02065076 -84 82 C-84 82.66 -84 83.32 -84 84 C-84.7425 84.433125 -85.485 84.86625 -86.25 85.3125 C-89.33879581 87.20789743 -90.74912645 89.1703304 -93 92 C-96.23040901 95.02496633 -99.62062997 97.86637981 -103.0390625 100.67578125 C-103.66554688 101.19527344 -104.29203125 101.71476563 -104.9375 102.25 C-105.78634766 102.93835938 -105.78634766 102.93835938 -106.65234375 103.640625 C-108.27017515 105.07162968 -108.27017515 105.07162968 -109 108 C-111.0625 108.6875 -111.0625 108.6875 -113 109 C-113 109.66 -113 110.32 -113 111 C-113.66 111 -114.32 111 -115 111 C-115 111.66 -115 112.32 -115 113 C-115.66 113 -116.32 113 -117 113 C-117 113.66 -117 114.32 -117 115 C-118.29233607 116.37310707 -119.62437146 117.71034824 -121 119 C-121.66 118.67 -122.32 118.34 -123 118 C-121.03973568 114.43476926 -119.10792079 111.98343352 -116 109.375 C-109.68151761 103.85797703 -103.83653693 97.8902745 -97.953125 91.91552734 C-93.73226547 87.65026521 -89.44122772 83.57523373 -84.88916016 79.66650391 C-81.77934474 76.92321107 -78.89961765 73.96193975 -76 71 C-71.85736252 66.80929394 -67.69060073 62.77309372 -63.1875 58.96875 C-60.00179249 56.10161324 -57.01415242 53.04568121 -54 50 C-49.85491669 45.81155808 -45.69083641 41.77329283 -41.1875 37.96875 C-38.00179232 35.10161308 -35.01415455 32.04567924 -32 29 C-24.71895711 21.64288509 -24.71895711 21.64288509 -21.0625 18.5625 C-18.34277489 16.22439915 -15.76498843 13.81039593 -13.25390625 11.25 C-12.57642334 10.56478271 -11.89894043 9.87956543 -11.20092773 9.17358398 C-9.82984076 7.77927737 -8.46336182 6.38042265 -7.10180664 4.97680664 C-6.47266357 4.33606201 -5.84352051 3.69531738 -5.1953125 3.03515625 C-4.62828613 2.4512915 -4.06125977 1.86742676 -3.47705078 1.26586914 C-2 0 -2 0 0 0 Z " fill="#72828B" transform="translate(658,423)"/>
<path d="M0 0 C0.33 0 0.66 0 1 0 C1.25394531 1.18335938 1.50789062 2.36671875 1.76953125 3.5859375 C3.82532036 13.37244346 3.82532036 13.37244346 6.5 23 C7.99068334 27.76516191 9.21033096 32.58407592 10.375 37.4375 C10.57931641 38.23220703 10.78363281 39.02691406 10.99414062 39.84570312 C11.5234375 42.12109375 11.5234375 42.12109375 12 46 C10.65478516 47.74243164 10.65478516 47.74243164 9 49 C8.34 49 7.68 49 7 49 C7 49.66 7 50.32 7 51 C6.34 51 5.68 51 5 51 C5 51.66 5 52.32 5 53 C3.35 53.66 1.7 54.32 0 55 C0 36.85 0 18.7 0 0 Z " fill="#1F6970" transform="translate(734,340)"/>
<path d="M0 0 C0.33 0 0.66 0 1 0 C2.16672231 4.66688923 2.21896047 9.21991244 2.25 14 C2.270625 14.7940625 2.29125 15.588125 2.3125 16.40625 C2.34549623 21.35568412 1.66074646 23.76347165 -1 28 C-1.37119135 29.53179812 -1.68663234 31.07752399 -1.96484375 32.62890625 C-2.97996981 38.2688425 -4.69553037 43.52830926 -6.5625 48.9375 C-7.27522139 51.03238823 -7.98744013 53.12744751 -8.69921875 55.22265625 C-9.07224121 56.31594238 -9.44526367 57.40922852 -9.82958984 58.53564453 C-11.06147516 62.18196338 -12.26261493 65.83733843 -13.45703125 69.49609375 C-13.86042725 70.72658447 -14.26382324 71.9570752 -14.67944336 73.22485352 C-15.46687669 75.62896128 -16.25034534 78.03437182 -17.02954102 80.44116211 C-17.56792603 82.07516968 -17.56792603 82.07516968 -18.1171875 83.7421875 C-18.59067627 85.19407471 -18.59067627 85.19407471 -19.07373047 86.67529297 C-20 89 -20 89 -22 91 C-21.27690458 85.33731766 -19.56422894 80.09649488 -17.8125 74.6875 C-17.34710815 73.23512939 -17.34710815 73.23512939 -16.87231445 71.75341797 C-14.69223641 65.00045266 -12.40387197 58.29172566 -9.9543457 51.6315918 C-8.31734812 47.12912718 -7.12114788 42.64960895 -6 38 C-5.354876 35.99294757 -4.69643985 33.98982813 -4 32 C-5.65 32.66 -7.3 33.32 -9 34 C-8.67386719 33.28457031 -8.34773437 32.56914063 -8.01171875 31.83203125 C-3.47979854 21.49818369 -0.95182757 11.23156532 0 0 Z M0 15 C-0.33 15.66 -0.66 16.32 -1 17 C-0.34 17 0.32 17 1 17 C0.67 16.34 0.34 15.68 0 15 Z " fill="#883C60" transform="translate(733,643)"/>
<path d="M0 0 C4.47175547 3.06885179 8.17334067 6.13596284 12 10 C13.06034988 11.06152683 14.12132516 12.12242919 15.18281555 13.18281555 C36.7885437 34.7885437 58.39427185 56.39427185 80 78 C79.67 78.66 79.34 79.32 79 80 C76.22872274 77.23912153 73.47287383 74.46520398 70.73828125 71.66796875 C69.59641694 70.50775071 68.45448901 69.34759529 67.3125 68.1875 C66.73177734 67.59001953 66.15105469 66.99253906 65.55273438 66.37695312 C64.07274424 64.87985327 62.54017218 63.43511269 61 62 C60.34 62 59.68 62 59 62 C57.98133771 60.34467377 56.98189187 58.67739862 56 57 C55.01 56.505 55.01 56.505 54 56 C54 55.34 54 54.68 54 54 C52.68 53.34 51.36 52.68 50 52 C50 51.34 50 50.68 50 50 C49.34 50 48.68 50 48 50 C48 49.34 48 48.68 48 48 C47.34 48 46.68 48 46 48 C46 47.34 46 46.68 46 46 C45.34 46 44.68 46 44 46 C44 45.34 44 44.68 44 44 C43.01 44 42.02 44 41 44 C40.505 42.02 40.505 42.02 40 40 C39.34 40 38.68 40 38 40 C37.34 39.01 36.68 38.02 36 37 C35.01 36.67 34.02 36.34 33 36 C32.87625 35.360625 32.7525 34.72125 32.625 34.0625 C32.41875 33.381875 32.2125 32.70125 32 32 C29.50965614 30.70339566 29.50965614 30.70339566 27 30 C27 29.34 27 28.68 27 28 C26.34 28 25.68 28 25 28 C24.938125 27.38125 24.87625 26.7625 24.8125 26.125 C24.544375 25.42375 24.27625 24.7225 24 24 C22.34561387 23.30341637 20.67745682 22.63903117 19 22 C16 18.68965517 16 18.68965517 16 16 C14.68 15.34 13.36 14.68 12 14 C12 13.34 12 12.68 12 12 C11.1028125 11.566875 11.1028125 11.566875 10.1875 11.125 C5.57146259 8.7510379 3.11252566 6.03787112 0 2 C0 1.34 0 0.68 0 0 Z " fill="#336C6F" transform="translate(419,469)"/>
<path d="M0 0 C0 0.33 0 0.66 0 1 C-8.35263176 1.95458649 -16.59784035 2.11039334 -25 2 C-25 1.34 -25 0.68 -25 0 C-26.58226965 -0.19627391 -28.16589271 -0.38165538 -29.75 -0.5625 C-30.63171875 -0.66691406 -31.5134375 -0.77132812 -32.421875 -0.87890625 C-34.88432451 -0.99456676 -36.66538064 -0.73638695 -39 0 C-39 -0.66 -39 -1.32 -39 -2 C-39.63369507 -1.99777939 -40.26739014 -1.99555878 -40.92028809 -1.99327087 C-47.53930088 -1.97107956 -54.15830304 -1.95603575 -60.77734375 -1.94506836 C-63.24479604 -1.9400519 -65.71224537 -1.93323719 -68.1796875 -1.92456055 C-71.73438244 -1.91237712 -75.28903793 -1.9067447 -78.84375 -1.90234375 C-79.93989624 -1.89718246 -81.03604248 -1.89202118 -82.16540527 -1.88670349 C-87.87641255 -1.88628891 -93.35231154 -2.13914453 -99 -3 C-99 -3.33 -99 -3.66 -99 -4 C-65.7347096 -5.85358832 -33.03100395 -4.31987183 0 0 Z " fill="#3B9CA1" transform="translate(579,64)"/>
<path d="M0 0 C0.99 0.495 0.99 0.495 2 1 C1.38125 1.2475 0.7625 1.495 0.125 1.75 C-2.45810285 3.26947227 -2.73547387 4.32217995 -4 7 C-8.11881188 12.70627063 -8.11881188 12.70627063 -12 14 C-13.71415322 15.61778685 -15.37253306 17.29503463 -17 19 C-18.01462855 20.03091312 -19.03165281 21.05947261 -20.05078125 22.0859375 C-20.5804248 22.6207373 -21.11006836 23.15553711 -21.65576172 23.70654297 C-26.38326085 28.46748152 -31.13132466 33.10733572 -36.23828125 37.46484375 C-41.29624953 41.87234161 -45.7350679 46.79006795 -50.08984375 51.87890625 C-52.98649305 55.09543094 -56.12966963 58.05052311 -59.27734375 61.01953125 C-61.32814462 62.93978086 -61.32814462 62.93978086 -61 66 C-62.32 65.34 -63.64 64.68 -65 64 C-61.3637325 57.71917431 -56.18078263 53.01831906 -51 48 C-50.34 47.34 -49.68 46.68 -49 46 C-47.89913178 45.07937469 -46.79457467 44.1631525 -45.6875 43.25 C-43.34366817 41.2604119 -41.29435512 39.2757172 -39.375 36.875 C-37.08021693 34.09710471 -34.85488553 32.17515088 -32 30 C-27.40599527 26.25255634 -23.19708012 22.23423916 -19.04296875 18.0078125 C-17.05487166 16.0539274 -14.99884711 14.24175869 -12.875 12.4375 C-9.66913565 9.6914158 -6.95638876 6.77633779 -4.32421875 3.48046875 C-3 2 -3 2 0 0 Z " fill="#225669" transform="translate(299,800)"/>
<path d="M0 0 C0.66 0.33 1.32 0.66 2 1 C1.50371094 1.4846875 1.00742187 1.969375 0.49609375 2.46875 C-2.95622333 5.87521088 -6.30568789 9.29475751 -9.4375 13 C-12.63948125 16.7307488 -16.16207125 19.93861898 -19.88671875 23.140625 C-22.88970685 25.78281047 -25.64642048 28.63735434 -28.4375 31.5 C-31 34 -31 34 -33.5625 36 C-36.11550628 37.94999687 -36.11550628 37.94999687 -38.125 40.6875 C-40 43 -40 43 -43 44 C-43.66 44.99 -44.32 45.98 -45 47 C-46.65532623 48.01866229 -48.32260138 49.01810813 -50 50 C-51.75149165 51.58245275 -51.75149165 51.58245275 -53 53 C-53.66 52.67 -54.32 52.34 -55 52 C-51.51385738 48.41580961 -47.98845345 44.93882475 -44.1875 41.6875 C-40.97666245 38.92381971 -37.97732835 36.01380404 -35 33 C-30.24937862 28.19845313 -25.27832908 23.77292002 -20.125 19.4140625 C-19.526875 18.90617187 -18.92875 18.39828125 -18.3125 17.875 C-17.79300781 17.43929688 -17.27351562 17.00359375 -16.73828125 16.5546875 C-14.39709389 14.46077161 -12.20932791 12.23234174 -10 10 C-5 5 -5 5 0 0 Z " fill="#79555D" transform="translate(802,332)"/>
<path d="M0 0 C9.10688006 0.45901392 17.81997702 1.97342173 26.7175293 3.84643555 C28.92887938 4.31069017 31.14281178 4.76057057 33.35742188 5.20898438 C42.0857237 7.00496877 50.53409698 9.18785748 59 12 C59 12.66 59 13.32 59 14 C49 12 49 12 46.33203125 11.39453125 C43.94004639 10.83367744 43.94004639 10.83367744 41.375 11.625 C40.199375 11.810625 40.199375 11.810625 39 12 C37.5625 10.6875 37.5625 10.6875 36 9 C31.12047433 6.9182659 26.93835045 6.78070919 21.75 6.9375 C14.23846154 7.11923077 14.23846154 7.11923077 12 6 C12 5.34 12 4.68 12 4 C11.34 4 10.68 4 10 4 C10 3.34 10 2.68 10 2 C7.03 2 4.06 2 1 2 C0.67 1.34 0.34 0.68 0 0 Z " fill="#299A9B" transform="translate(579,65)"/>
<path d="M0 0 C21.45 0 42.9 0 65 0 C65 0.33 65 0.66 65 1 C64.39136108 0.99476318 63.78272217 0.98952637 63.15563965 0.98413086 C56.79555008 0.93728483 50.43726386 0.94656188 44.07714844 0.98779297 C41.70671146 0.99588209 39.3361813 0.98987005 36.96582031 0.96923828 C33.54890553 0.94198329 30.13554079 0.96616915 26.71875 1 C25.66635132 0.9805835 24.61395264 0.96116699 23.52966309 0.94116211 C17.60430482 1.05616202 14.54457209 1.80848298 10.26757812 6.0625 C9.14946338 7.35045048 8.04919668 8.65531293 7 10 C2.57320993 8.52440331 2.08567304 6.09942632 0 2 C0 1.34 0 0.68 0 0 Z " fill="#426972" transform="translate(490,605)"/>
<path d="M0 0 C0.33 0 0.66 0 1 0 C1.18947437 45.68081403 1.18947437 45.68081403 0.625 61.25 C0.59414307 62.24572021 0.56328613 63.24144043 0.53149414 64.26733398 C0.4927417 65.15364502 0.45398926 66.03995605 0.4140625 66.953125 C0.3826416 67.69723633 0.3512207 68.44134766 0.31884766 69.20800781 C0 71 0 71 -2 73 C-2 58.15 -2 43.3 -2 28 C-2.33 28 -2.66 28 -3 28 C-2.54362211 18.53616378 -1.81847768 9.32190498 0 0 Z " fill="#1E6F7B" transform="translate(298,337)"/>
<path d="M0 0 C0.66 0.33 1.32 0.66 2 1 C0.37660195 2.70884005 -1.29319053 4.37446717 -3 6 C-3.66 6 -4.32 6 -5 6 C-5.33 6.99 -5.66 7.98 -6 9 C-6.9590625 9.2165625 -6.9590625 9.2165625 -7.9375 9.4375 C-8.9584375 9.7159375 -8.9584375 9.7159375 -10 10 C-10.67753916 11.32784145 -11.34252321 12.66211118 -12 14 C-13.47705078 15.7199707 -13.47705078 15.7199707 -15.1953125 17.42578125 C-15.82469727 18.05379639 -16.45408203 18.68181152 -17.10253906 19.32885742 C-18.10365723 20.3107605 -18.10365723 20.3107605 -19.125 21.3125 C-19.80788086 21.98966064 -20.49076172 22.66682129 -21.19433594 23.36450195 C-25.01774825 27.13276013 -28.91120483 30.73765107 -33.03515625 34.17578125 C-34.71932733 35.73941524 -36.22301021 37.32697167 -37.74609375 39.04296875 C-38.23239258 39.59057861 -38.71869141 40.13818848 -39.21972656 40.70239258 C-40.17670524 41.79292167 -41.1232771 42.89269885 -42.05761719 44.00268555 C-44.8442577 47.19114692 -46.71760199 48.70679077 -51 49 C-49.625 47 -49.625 47 -48 45 C-47.34 45 -46.68 45 -46 45 C-45.773125 44.236875 -45.54625 43.47375 -45.3125 42.6875 C-43.69241564 39.3701844 -42.13327046 38.86265642 -39 37 C-37.51942791 35.62841078 -36.08238942 34.20864122 -34.6875 32.75 C-31.89957721 29.89306922 -29.10058161 27.15163432 -26.0625 24.5625 C-20.36493446 19.67561012 -15.19240716 14.24672032 -9.93359375 8.8984375 C-8.11856058 7.11640493 -6.25589299 5.45236958 -4.3125 3.8125 C-2.10189212 1.96529986 -2.10189212 1.96529986 0 0 Z " fill="#325662" transform="translate(583,531)"/>
<path d="M0 0 C0.495 1.485 0.495 1.485 1 3 C0.4946875 3.40992188 -0.010625 3.81984375 -0.53125 4.2421875 C-1.1809375 4.78101563 -1.830625 5.31984375 -2.5 5.875 C-3.1496875 6.40867187 -3.799375 6.94234375 -4.46875 7.4921875 C-4.9740625 7.98976563 -5.479375 8.48734375 -6 9 C-6 9.66 -6 10.32 -6 11 C-7.99330842 12.34331654 -9.99384866 13.67594012 -12 15 C-12.99 16.485 -12.99 16.485 -14 18 C-14.99 18 -15.98 18 -17 18 C-17 19.32 -17 20.64 -17 22 C-18.95247876 23.40200017 -20.96233548 24.72497016 -23 26 C-24.85420972 27.76980757 -26.66659076 29.58434243 -28.4375 31.4375 C-32.3613597 35.46695838 -36.19977466 39.03815883 -41 42 C-41.66 42 -42.32 42 -43 42 C-43 41.34 -43 40.68 -43 40 C-41.56640625 38.80639648 -41.56640625 38.80639648 -39.5625 37.43359375 C-34.53347386 33.78467227 -30.32291746 29.50713783 -26 25.0625 C-21.07648261 20.02555687 -16.12697006 15.14133975 -10.78125 10.55200195 C-8.41485164 8.49016062 -6.20148529 6.2983835 -4 4.0625 C-3.236875 3.29035156 -2.47375 2.51820313 -1.6875 1.72265625 C-1.130625 1.15417969 -0.57375 0.58570313 0 0 Z " fill="#664057" transform="translate(716,685)"/>
<path d="M0 0 C0.495 0.99 0.495 0.99 1 2 C-0.010625 2.825 -1.02125 3.65 -2.0625 4.5 C-5.4673247 7.41157042 -8.34059745 10.58400104 -11.25 13.98046875 C-18.55431696 22.40978096 -18.55431696 22.40978096 -23.625 25 C-27.26643442 27.15788706 -28.514074 28.93394494 -30.734375 32.3828125 C-32.67933247 34.86803593 -35.12025349 35.86149556 -38 37 C-36.88531932 33.65595797 -35.49885266 32.59121759 -32.765625 30.4765625 C-29.74926024 27.95402737 -27.06955773 25.09162649 -24.31982422 22.28515625 C-22.48715038 20.41619677 -20.64991638 18.55179603 -18.8125 16.6875 C-17.86987305 15.71973633 -17.86987305 15.71973633 -16.90820312 14.73242188 C-16.30556641 14.12333984 -15.70292969 13.51425781 -15.08203125 12.88671875 C-14.53780518 12.33201904 -13.9935791 11.77731934 -13.43286133 11.20581055 C-12 10 -12 10 -10 10 C-10 9.34 -10 8.68 -10 8 C-8.38542921 6.56418526 -6.70780925 5.19855217 -5 3.875 C-3.6078125 2.78832031 -3.6078125 2.78832031 -2.1875 1.6796875 C-1.465625 1.12539063 -0.74375 0.57109375 0 0 Z " fill="#295767" transform="translate(395,710)"/>
<path d="M0 0 C0 3.50208644 -0.3872687 3.77575377 -2.7109375 6.1875 C-3.29166016 6.79851562 -3.87238281 7.40953125 -4.47070312 8.0390625 C-5.09912109 8.68617188 -5.72753906 9.33328125 -6.375 10 C-7.66461604 11.35363953 -8.95367493 12.70781005 -10.2421875 14.0625 C-10.88124023 14.73023438 -11.52029297 15.39796875 -12.17871094 16.0859375 C-18.32094028 22.5410418 -24.25159364 29.19267668 -30 36 C-30.66 35.67 -31.32 35.34 -32 35 C-21.68509859 22.99601298 -11.34598061 11.05339085 0 0 Z " fill="#2F8C8F" transform="translate(193,189)"/>
<path d="M0 0 C1.32494254 2.64988509 0.73405268 3.62024163 -0.07421875 6.4375 C-0.45803711 7.78134766 -0.45803711 7.78134766 -0.84960938 9.15234375 C-1.12611328 10.09207031 -1.40261719 11.03179688 -1.6875 12 C-1.94466797 12.90878906 -2.20183594 13.81757812 -2.46679688 14.75390625 C-4.04639228 20.21069037 -5.88835622 25.4646789 -8.08276367 30.70483398 C-9.33753323 33.84459672 -10.32171219 37.04737786 -11.2890625 40.28515625 C-12 42 -12 42 -14 43 C-9.142291 22.57554171 -9.142291 22.57554171 -5.4375 14.3125 C-3.83523135 10.62031571 -2.73568113 6.90871454 -1.6484375 3.0390625 C-1 1 -1 1 0 0 Z " fill="#853B65" transform="translate(710,735)"/>
<path d="M0 0 C0.33 0 0.66 0 1 0 C2.1983581 4.72632434 2.18363561 9.3454144 2.1875 14.1875 C2.19974609 15.00669922 2.21199219 15.82589844 2.22460938 16.66992188 C2.22982258 18.78126936 2.12276321 20.89221809 2 23 C1.34 23.66 0.68 24.32 0 25 C-0.33 24.67 -0.66 24.34 -1 24 C-1.66 24.66 -2.32 25.32 -3 26 C-4.36077099 22.25334387 -3.61317131 19.60653388 -2.625 15.8125 C-1.31462417 10.51116217 -0.46070954 5.4363726 0 0 Z M0 15 C-0.33 15.66 -0.66 16.32 -1 17 C-0.34 17 0.32 17 1 17 C0.67 16.34 0.34 15.68 0 15 Z " fill="#844864" transform="translate(733,643)"/>
<path d="M0 0 C1.32 0.66 2.64 1.32 4 2 C3.54560547 2.43868408 3.09121094 2.87736816 2.62304688 3.3293457 C0.57425281 5.31588795 -1.46291556 7.31395499 -3.5 9.3125 C-4.21542969 10.00279297 -4.93085938 10.69308594 -5.66796875 11.40429688 C-6.34472656 12.07138672 -7.02148438 12.73847656 -7.71875 13.42578125 C-8.34716797 14.03848877 -8.97558594 14.65119629 -9.62304688 15.2824707 C-11.31275311 17.02321925 -11.31275311 17.02321925 -11 20 C-12.32 19.34 -13.64 18.68 -15 18 C-11.85297808 12.56423486 -7.64670197 8.52243528 -3.14453125 4.171875 C-0.96565064 2.1898111 -0.96565064 2.1898111 0 0 Z " fill="#22475D" transform="translate(249,846)"/>
<path d="M0 0 C0 0.99 0 1.98 0 3 C-1.44645472 4.2492109 -2.90057528 5.49191728 -4.41015625 6.6640625 C-6.23291588 8.10590518 -6.23291588 8.10590518 -8.1875 10.75 C-10 13 -10 13 -13 14 C-13.99 15.485 -13.99 15.485 -15 17 C-16.65532623 18.01866229 -18.32260138 19.01810813 -20 20 C-21.75149165 21.58245275 -21.75149165 21.58245275 -23 23 C-23.66 22.67 -24.32 22.34 -25 22 C-20.76128535 17.6420715 -16.39135725 13.52932536 -11.78125 9.56640625 C-9.88282572 7.93807122 -9.88282572 7.93807122 -7.8125 5.75 C-5.72917643 3.73851517 -3.51109071 2.42521365 -1 1 C-0.67 0.67 -0.34 0.34 0 0 Z " fill="#7C5059" transform="translate(772,362)"/>
<path d="M0 0 C6.36590304 5.24458586 12.13570612 11.02097322 17.9375 16.875 C18.91708237 17.85960919 19.89689837 18.843986 20.87695312 19.828125 C23.25360252 22.21648203 25.62787356 24.60715212 28 27 C27.67 27.66 27.34 28.32 27 29 C24.22872274 26.23912153 21.47287383 23.46520398 18.73828125 20.66796875 C17.59641694 19.50775071 16.45448901 18.34759529 15.3125 17.1875 C14.73177734 16.59001953 14.15105469 15.99253906 13.55273438 15.37695312 C12.07274424 13.87985327 10.54017218 12.43511269 9 11 C8.34 11 7.68 11 7 11 C5.98133771 9.34467377 4.98189187 7.67739862 4 6 C3.34 5.67 2.68 5.34 2 5 C2 4.34 2 3.68 2 3 C1.01 2.67 0.02 2.34 -1 2 C-0.67 1.34 -0.34 0.68 0 0 Z " fill="#2A6669" transform="translate(471,520)"/>
<path d="M0 0 C1.25683594 0.47566406 1.25683594 0.47566406 2.5390625 0.9609375 C6.2340989 2.07028251 9.52889627 2.40729602 13.375 2.625 C14.62023437 2.69976563 15.86546875 2.77453125 17.1484375 2.8515625 C18.08945312 2.90054688 19.03046875 2.94953125 20 3 C18.63016497 6.16115776 18.0109362 6.9927092 15 9 C11.8125 9.125 11.8125 9.125 9 9 C9 7.68 9 6.36 9 5 C7.329375 4.5978125 7.329375 4.5978125 5.625 4.1875 C2 3 2 3 0 0 Z " fill="#25696E" transform="translate(500,549)"/>
<path d="M0 0 C0.33 0 0.66 0 1 0 C1.19266055 17.44648318 1.19266055 17.44648318 0 25 C-0.33 25.33 -0.66 25.66 -1 26 C-1.23075082 27.34747084 -1.41153063 28.70377565 -1.5625 30.0625 C-1.706875 31.361875 -1.85125 32.66125 -2 34 C-2.33 34 -2.66 34 -3 34 C-3.57850927 22.45124086 -1.81922018 11.37173891 0 0 Z " fill="#337F8B" transform="translate(67,431)"/>
<path d="M0 0 C-8.415 0.495 -8.415 0.495 -17 1 C-17.33 1.99 -17.66 2.98 -18 4 C-22.67312888 3.55066068 -25.38775335 2.98090266 -29 0 C-26.16724047 -0.33896268 -23.33395339 -0.67129694 -20.5 -1 C-19.31277344 -1.14308594 -19.31277344 -1.14308594 -18.1015625 -1.2890625 C-4.30791084 -2.87194056 -4.30791084 -2.87194056 0 0 Z " fill="#339A9E" transform="translate(479,63)"/>
<path d="M0 0 C3.66752005 1.5391801 5.98580573 3.75485452 8.765625 6.5703125 C9.65507812 7.46621094 10.54453125 8.36210938 11.4609375 9.28515625 C12.38132812 10.22230469 13.30171875 11.15945313 14.25 12.125 C15.19484856 13.07988637 16.14015633 14.03431859 17.0859375 14.98828125 C19.39518338 17.32109087 21.69963203 19.65844086 24 22 C23.67 22.66 23.34 23.32 23 24 C18.2431259 21.49638205 18.2431259 21.49638205 17.0625 19.0859375 C15.83256699 16.67128961 14.49339079 15.5400726 12.375 13.875 C10.4609375 12.3671875 10.4609375 12.3671875 9 11 C9 10.34 9 9.68 9 9 C8.34 9 7.68 9 7 9 C5.31237149 7.3545622 3.6459651 5.68711423 2 4 C1.34 3.67 0.68 3.34 0 3 C0 2.01 0 1.02 0 0 Z " fill="#2A6568" transform="translate(332,703)"/>
<path d="M0 0 C0.33 0.99 0.66 1.98 1 3 C0.4946875 3.40992188 -0.010625 3.81984375 -0.53125 4.2421875 C-1.1809375 4.78101563 -1.830625 5.31984375 -2.5 5.875 C-3.1496875 6.40867187 -3.799375 6.94234375 -4.46875 7.4921875 C-4.9740625 7.98976563 -5.479375 8.48734375 -6 9 C-6 9.66 -6 10.32 -6 11 C-7.99330842 12.34331654 -9.99384866 13.67594012 -12 15 C-12.99 16.485 -12.99 16.485 -14 18 C-14.99 18 -15.98 18 -17 18 C-17 19.32 -17 20.64 -17 22 C-18.65 22 -20.3 22 -22 22 C-18.72508989 17.80402142 -15.2516314 14.39117863 -11.203125 10.9453125 C-7.28532584 7.4859792 -3.65591946 3.73208445 0 0 Z " fill="#6F455A" transform="translate(716,685)"/>
<path d="M0 0 C1.31315787 3.64129629 0.6657351 5.82598364 -0.58203125 9.4296875 C-0.93716797 10.47253906 -1.29230469 11.51539063 -1.65820312 12.58984375 C-2.03912109 13.67394531 -2.42003906 14.75804687 -2.8125 15.875 C-3.18181641 16.95136719 -3.55113281 18.02773438 -3.93164062 19.13671875 C-4.62387624 21.15252875 -5.32042278 23.16686732 -6.02270508 25.17919922 C-7.0387616 28.11187897 -8.02367328 31.05388176 -9 34 C-11 31 -11 31 -10.625 28.8125 C-10.41875 28.214375 -10.2125 27.61625 -10 27 C-9.34 27 -8.68 27 -8 27 C-7.896875 26.236875 -7.79375 25.47375 -7.6875 24.6875 C-6.08391829 16.08647085 -3.43396774 8.03583314 0 0 Z M-12 31 C-11.67 31.66 -11.34 32.32 -11 33 C-11.66 32.67 -12.32 32.34 -13 32 C-12.67 31.67 -12.34 31.34 -12 31 Z " fill="#8A3D5C" transform="translate(745,627)"/>
<path d="M0 0 C3.0000624 -0.02721831 5.99987256 -0.04694378 9 -0.0625 C9.83917969 -0.07087891 10.67835938 -0.07925781 11.54296875 -0.08789062 C16.79319339 -0.10824033 21.80455662 0.23631793 27 1 C27 1.33 27 1.66 27 2 C18.64736824 2.95458649 10.40215965 3.11039334 2 3 C2 2.34 2 1.68 2 1 C1.34 0.67 0.68 0.34 0 0 Z " fill="#249699" transform="translate(552,63)"/>
<path d="M0 0 C0.66 0.66 1.32 1.32 2 2 C-5.51871307 10.92711753 -5.51871307 10.92711753 -10 14 C-10.66 14 -11.32 14 -12 14 C-12.23460937 14.57234375 -12.46921875 15.1446875 -12.7109375 15.734375 C-14.29406585 18.51684301 -16.1991525 20.17070214 -18.625 22.25 C-19.44226563 22.95640625 -20.25953125 23.6628125 -21.1015625 24.390625 C-21.72804688 24.92171875 -22.35453125 25.4528125 -23 26 C-23 23 -23 23 -21.42578125 21.3515625 C-20.72839844 20.78179687 -20.03101563 20.21203125 -19.3125 19.625 C-16.93978539 17.63873453 -14.69096185 15.69096185 -12.5 13.5 C-9.72913995 10.72913995 -6.786378 8.24378905 -3.76953125 5.74609375 C-1.93971653 3.94051499 -1.00261344 2.34971457 0 0 Z " fill="#315760" transform="translate(651,465)"/>
<path d="M0 0 C0.33 0.66 0.66 1.32 1 2 C-0.5159375 3.2375 -0.5159375 3.2375 -2.0625 4.5 C-5.46018655 7.40546637 -8.33247974 10.56347956 -11.22265625 13.96484375 C-13.99079238 17.13451172 -16.98474344 20.06722766 -20 23 C-20.66 22.67 -21.32 22.34 -22 22 C-20.82630859 20.86111328 -20.82630859 20.86111328 -19.62890625 19.69921875 C-18.60650804 18.69558014 -17.58438701 17.69165911 -16.5625 16.6875 C-16.04623047 16.18798828 -15.52996094 15.68847656 -14.99804688 15.17382812 C-12.59409824 12.80130365 -11.08343207 11.25029621 -10 8 C-8.36735356 6.54038617 -6.67087977 5.15093248 -4.9375 3.8125 C-4.01839844 3.09707031 -3.09929687 2.38164063 -2.15234375 1.64453125 C-1.44207031 1.10183594 -0.73179687 0.55914063 0 0 Z " fill="#30485E" transform="translate(395,710)"/>
<path d="M0 0 C1.30459087 4.21695219 0.28430031 6.79034898 -1 11 C-1.12375 12.134375 -1.2475 13.26875 -1.375 14.4375 C-2.14082593 18.80270778 -3.8560132 22.16076781 -6 26 C-6.33 26 -6.66 26 -7 26 C-7.24408097 21.85062355 -6.36238236 18.90304137 -5 15 C-4.56831602 13.71160471 -4.13871339 12.42251063 -3.7109375 11.1328125 C-2.47395833 7.421875 -1.23697917 3.7109375 0 0 Z " fill="#863B69" transform="translate(689,796)"/>
<path d="M0 0 C2.35953094 2.35953094 2.49141413 3.77895617 3 7 C2.01 7.33 1.02 7.66 0 8 C0 11.96 0 15.92 0 20 C-0.66 20.33 -1.32 20.66 -2 21 C-3.16384134 16.05174743 -2.67338225 12.0034276 -1.5625 7.125 C-1.41490234 6.43664062 -1.26730469 5.74828125 -1.11523438 5.0390625 C-0.75317961 3.35725971 -0.37793884 1.67830466 0 0 Z " fill="#2E7F88" transform="translate(71,411)"/>
<path d="M0 0 C1.13643966 3.40931897 0.86747764 4.00335456 -0.4375 7.1875 C-0.72496094 7.90292969 -1.01242187 8.61835937 -1.30859375 9.35546875 C-1.53675781 9.89816406 -1.76492188 10.44085937 -2 11 C-2.33 10.34 -2.66 9.68 -3 9 C-4.65 9.66 -6.3 10.32 -8 11 C-7.24163557 9.34838419 -6.46787924 7.70382862 -5.6875 6.0625 C-5.25824219 5.14597656 -4.82898438 4.22945312 -4.38671875 3.28515625 C-3 1 -3 1 0 0 Z " fill="#7A425E" transform="translate(732,666)"/>
<path d="M0 0 C0.33 0.99 0.66 1.98 1 3 C-2.66666667 6.66666667 -6.33333333 10.33333333 -10 14 C-10.99 13.67 -11.98 13.34 -13 13 C-8.71 8.71 -4.42 4.42 0 0 Z " fill="#2A686C" transform="translate(567,508)"/>
<path d="M0 0 C-1.875 3.875 -1.875 3.875 -3 5 C-3.02644239 8.80014912 -2.97052198 12.58814363 -2.87304688 16.38671875 C-2.85661133 17.58361328 -2.85661133 17.58361328 -2.83984375 18.8046875 C-2.82300537 19.53671387 -2.80616699 20.26874023 -2.78881836 21.02294922 C-3 23 -3 23 -5 26 C-5.08678303 22.04180389 -5.14031733 18.08385066 -5.1875 14.125 C-5.21263672 12.99707031 -5.23777344 11.86914062 -5.26367188 10.70703125 C-5.27333984 9.63066406 -5.28300781 8.55429687 -5.29296875 7.4453125 C-5.3086792 6.45031738 -5.32438965 5.45532227 -5.34057617 4.43017578 C-5.22818604 3.62821777 -5.1157959 2.82625977 -5 2 C-2 0 -2 0 0 0 Z " fill="#6B434D" transform="translate(739,393)"/>
<path d="M0 0 C0 3 0 3 -2.265625 5.33984375 C-3.25046875 6.19707031 -4.2353125 7.05429687 -5.25 7.9375 C-8.6009817 10.87625776 -11.88855336 13.80706309 -15 17 C-15.66 16.67 -16.32 16.34 -17 16 C-16.278125 15.29875 -15.55625 14.5975 -14.8125 13.875 C-12.87048372 11.94944149 -11.13372787 9.95648989 -9.4375 7.8125 C-7.1974988 5.22788323 -6.01797404 4.30778875 -3 3 C-1.29078411 1.4587688 -1.29078411 1.4587688 0 0 Z " fill="#265265" transform="translate(341,761)"/>
<path d="M0 0 C0.66 0.33 1.32 0.66 2 1 C0.37660195 2.70884005 -1.29319053 4.37446717 -3 6 C-3.66 6 -4.32 6 -5 6 C-5.33 6.99 -5.66 7.98 -6 9 C-6.9590625 9.2165625 -6.9590625 9.2165625 -7.9375 9.4375 C-8.9584375 9.7159375 -8.9584375 9.7159375 -10 10 C-11.05021103 11.84971696 -11.05021103 11.84971696 -12 14 C-13.29470975 15.37086915 -14.62150897 16.71340837 -16 18 C-16.66 17.67 -17.32 17.34 -18 17 C-16.5484451 15.32742645 -15.08855591 13.66208242 -13.625 12 C-12.81289063 11.071875 -12.00078125 10.14375 -11.1640625 9.1875 C-10.44992187 8.465625 -9.73578125 7.74375 -9 7 C-8.34 7 -7.68 7 -7 7 C-5.29115995 5.37660195 -3.62553283 3.70680947 -2 2 C-1.34 1.34 -0.68 0.68 0 0 Z " fill="#2D5963" transform="translate(583,531)"/>
<path d="M0 0 C0.66 0.33 1.32 0.66 2 1 C-1.7947001 5.8619595 -5.93883895 10.42118737 -11 14 C-11.99 14 -12.98 14 -14 14 C-13.38125 13.401875 -12.7625 12.80375 -12.125 12.1875 C-9.86323046 9.99188856 -9.86323046 9.99188856 -8 7 C-7.34 6.67 -6.68 6.34 -6 6 C-5.34 5.01 -4.68 4.02 -4 3 C-3.34 3.33 -2.68 3.66 -2 4 C-1.34 2.68 -0.68 1.36 0 0 Z " fill="#245569" transform="translate(317,783)"/>
<path d="M0 0 C0.99 0.33 1.98 0.66 3 1 C2.24074219 1.67546875 1.48148438 2.3509375 0.69921875 3.046875 C-0.30485689 3.94772791 -1.30875372 4.84878014 -2.3125 5.75 C-2.81201172 6.1934375 -3.31152344 6.636875 -3.82617188 7.09375 C-6.54931809 9.546385 -8.92764123 11.97280016 -11 15 C-11.33 14.01 -11.66 13.02 -12 12 C-8.04 8.04 -4.08 4.08 0 0 Z " fill="#226264" transform="translate(625,453)"/>
<path d="M0 0 C0.33 0.66 0.66 1.32 1 2 C0.0625 4.125 0.0625 4.125 -1 6 C-0.22462891 7.03060547 -0.22462891 7.03060547 0.56640625 8.08203125 C1.22511719 8.98308594 1.88382813 9.88414062 2.5625 10.8125 C3.55443359 12.15248047 3.55443359 12.15248047 4.56640625 13.51953125 C5.03949219 14.33808594 5.51257813 15.15664063 6 16 C5.67 16.99 5.34 17.98 5 19 C3.46636928 16.73692309 1.94815741 14.46583175 0.4375 12.1875 C-0.21895508 11.22360352 -0.21895508 11.22360352 -0.88867188 10.24023438 C-2.00534154 8.5432482 -3.01064506 6.77422942 -4 5 C-3 2 -3 2 0 0 Z " fill="#BB9B4A" transform="translate(809,326)"/>
<path d="M0 0 C0.66 0.33 1.32 0.66 2 1 C-1.3 4.63 -4.6 8.26 -8 12 C-8.99 11.67 -9.98 11.34 -11 11 C-7.6189962 6.86378916 -4.33409466 3.18683431 0 0 Z " fill="#315368" transform="translate(468,640)"/>
<path d="M0 0 C0.66 0.33 1.32 0.66 2 1 C-1.50897269 5.18423892 -5.08060535 9.19588166 -9 13 C-9.99 12.67 -10.98 12.34 -12 12 C-8 8 -4 4 0 0 Z " fill="#A1AE53" transform="translate(845,292)"/>
<path d="M0 0 C0.33 0 0.66 0 1 0 C2.11623182 4.46492728 2.36309868 8.42495669 2 13 C0.68 14.32 -0.64 15.64 -2 17 C-1.34 11.39 -0.68 5.78 0 0 Z " fill="#7E5168" transform="translate(733,643)"/>
<path d="M0 0 C3.91939465 3.80411834 7.49102731 7.81576108 11 12 C8.50638429 10.79618552 6.31856917 9.54571278 4 8 C3.34 8.66 2.68 9.32 2 10 C-0.4294516 6.3558226 -0.16179575 4.28758728 0 0 Z " fill="#2B6368" transform="translate(376,425)"/>
<path d="M0 0 C0 3 0 3 -1.375 4.6875 C-3 6 -3 6 -5 6 C-5.268125 6.598125 -5.53625 7.19625 -5.8125 7.8125 C-6.98493467 9.97224808 -8.19369282 11.35790256 -10 13 C-10.99 12.67 -11.98 12.34 -13 12 C-11.58653438 10.55935235 -10.16908789 9.12260985 -8.75 7.6875 C-7.96109375 6.88699219 -7.1721875 6.08648437 -6.359375 5.26171875 C-4.32605933 3.31256349 -2.29398922 1.62578594 0 0 Z " fill="#2E8C8E" transform="translate(211,172)"/>
<path d="M0 0 C0.61875 0.639375 1.2375 1.27875 1.875 1.9375 C3.82597612 4.03883584 3.82597612 4.03883584 6 5 C6.4140625 7.72265625 6.4140625 7.72265625 6.625 11.0625 C6.69976562 12.16722656 6.77453125 13.27195312 6.8515625 14.41015625 C6.90054688 15.26480469 6.94953125 16.11945312 7 17 C4.55213773 14.55213773 3.69919356 12.25682658 2.375 9.0625 C1.70597656 7.47115234 1.70597656 7.47115234 1.0234375 5.84765625 C0 3 0 3 0 0 Z " fill="#31717E" transform="translate(94,677)"/>
<path d="M0 0 C0.66 0.33 1.32 0.66 2 1 C0.93283928 2.20205464 -0.15438337 3.38632333 -1.25 4.5625 C-2.15492188 5.55443359 -2.15492188 5.55443359 -3.078125 6.56640625 C-5 8 -5 8 -7.234375 7.71484375 C-7.81703125 7.47894531 -8.3996875 7.24304688 -9 7 C-7.625 5.5 -7.625 5.5 -6 4 C-5.34 4 -4.68 4 -4 4 C-3.67 3.01 -3.34 2.02 -3 1 C-2.01 0.67 -1.02 0.34 0 0 Z " fill="#3C4C5F" transform="translate(541,572)"/>
<path d="M0 0 C0.33 1.32 0.66 2.64 1 4 C-1.25 6.4375 -1.25 6.4375 -4 9 C-4.53625 9.928125 -5.0725 10.85625 -5.625 11.8125 C-6.07875 12.534375 -6.5325 13.25625 -7 14 C-7.99 14 -8.98 14 -10 14 C-6.7 9.38 -3.4 4.76 0 0 Z " fill="#328C90" transform="translate(153,234)"/>
<path d="M0 0 C-6.17121215 3.3284547 -10.09212392 4.50717296 -17 3 C-17 2.67 -17 2.34 -17 2 C-14.91952703 1.4678559 -12.83547707 0.94968214 -10.75 0.4375 C-9.58984375 0.14746094 -8.4296875 -0.14257812 -7.234375 -0.44140625 C-4.27909017 -0.95179964 -2.75565899 -1.02996165 0 0 Z " fill="#2A9699" transform="translate(414,71)"/>
<path d="M0 0 C-1.19111749 3.57335247 -2.43356308 4.41716762 -5.375 6.6875 C-6.16648437 7.31011719 -6.95796875 7.93273437 -7.7734375 8.57421875 C-10 10 -10 10 -13 10 C-11.40517782 8.32438946 -9.79883156 6.65974066 -8.1875 5 C-7.29417969 4.071875 -6.40085937 3.14375 -5.48046875 2.1875 C-3 0 -3 0 0 0 Z " fill="#346E6F" transform="translate(614,466)"/>
<path d="M0 0 C3.96 0 7.92 0 12 0 C11.67 1.32 11.34 2.64 11 4 C6.00837213 3.52003578 4.14964417 3.11223313 0 0 Z " fill="#1D9496" transform="translate(450,63)"/>
<path d="M0 0 C1.20510937 3.61532811 0.38327313 4.6938219 -1.1640625 8.015625 C-2.52677789 11.2504821 -3.22060865 14.58266871 -4 18 C-5.21890144 14.34329569 -4.64337359 12.69664856 -3.6875 9 C-3.42324219 7.948125 -3.15898438 6.89625 -2.88671875 5.8125 C-2 3 -2 3 0 0 Z " fill="#843B69" transform="translate(681,822)"/>
<path d="M0 0 C0.99 0.33 1.98 0.66 3 1 C2 2 1 3 0 4 C-0.45375 4.474375 -0.9075 4.94875 -1.375 5.4375 C-3.46553842 7.4476331 -5.7187155 9.2119662 -8 11 C-8 8 -8 8 -6.25 5.95703125 C-5.5075 5.24933594 -4.765 4.54164063 -4 3.8125 C-2.88625 2.73935547 -2.88625 2.73935547 -1.75 1.64453125 C-1.1725 1.10183594 -0.595 0.55914062 0 0 Z " fill="#206165" transform="translate(577,499)"/>
<path d="M0 0 C0 3 0 3 -1 5 C-5.13191749 6.34008135 -5.88348273 6.05825864 -10 4 C-6.7 2.68 -3.4 1.36 0 0 Z " fill="#289596" transform="translate(340,92)"/>
<path d="M0 0 C-0.33 1.98 -0.66 3.96 -1 6 C-1.66 5.34 -2.32 4.68 -3 4 C-4.98 5.98 -6.96 7.96 -9 10 C-9.66 9.67 -10.32 9.34 -11 9 C-9.54782324 7.49403892 -8.08807139 5.99537896 -6.625 4.5 C-5.40683594 3.24703125 -5.40683594 3.24703125 -4.1640625 1.96875 C-2 0 -2 0 0 0 Z " fill="#386F70" transform="translate(657,424)"/>
<path d="M0 0 C0 3.96130371 -1.34877125 4.82914401 -4 7.6875 C-4.7425 8.49574219 -5.485 9.30398437 -6.25 10.13671875 C-6.8275 10.75160156 -7.405 11.36648437 -8 12 C-8.99 11.67 -9.98 11.34 -11 11 C-7.37 7.37 -3.74 3.74 0 0 Z " fill="#298789" transform="translate(193,189)"/>
<path d="M0 0 C0.33 0.66 0.66 1.32 1 2 C0 5 0 5 -2.8125 6.75 C-6 8 -6 8 -10 7 C-6.7 4.69 -3.4 2.38 0 0 Z " fill="#2E9093" transform="translate(254,138)"/>
<path d="M0 0 C3.21524305 1.40844718 5.32183868 3.10344786 7.75 5.625 C8.67039062 6.57246094 8.67039062 6.57246094 9.609375 7.5390625 C10.29773438 8.26222656 10.29773438 8.26222656 11 9 C10.01 9.495 10.01 9.495 9 10 C8.51789063 9.57847656 8.03578125 9.15695312 7.5390625 8.72265625 C6.90742188 8.17480469 6.27578125 7.62695312 5.625 7.0625 C4.99851562 6.51722656 4.37203125 5.97195313 3.7265625 5.41015625 C2.04367666 3.93041376 2.04367666 3.93041376 0 3 C0 2.01 0 1.02 0 0 Z " fill="#366F72" transform="translate(332,703)"/>
<path d="M0 0 C4.44536093 2.99206986 7.84778899 5.58690458 11 10 C10.67 10.66 10.34 11.32 10 12 C5.99620626 9.02575322 3.00297061 5.94676137 0 2 C0 1.34 0 0.68 0 0 Z " fill="#256467" transform="translate(419,469)"/>
<path d="M0 0 C0.99 0.99 1.98 1.98 3 3 C1.9171875 3.5878125 1.9171875 3.5878125 0.8125 4.1875 C-2.227326 6.14649898 -4.52127727 8.37963597 -7 11 C-7.33 10.34 -7.66 9.68 -8 9 C-7.525625 8.566875 -7.05125 8.13375 -6.5625 7.6875 C-4.76313043 5.97690387 -4.76313043 5.97690387 -4 3 C-3.01 2.67 -2.02 2.34 -1 2 C-0.67 1.34 -0.34 0.68 0 0 Z " fill="#2B6573" transform="translate(480,627)"/>
<path d="M0 0 C0.78375 0.639375 1.5675 1.27875 2.375 1.9375 C4.79539281 3.98142313 4.79539281 3.98142313 7 5 C7 6.98 7 8.96 7 11 C4.08156555 8.373409 2.05482685 5.33023661 0 2 C0 1.34 0 0.68 0 0 Z " fill="#EC9848" transform="translate(949,546)"/>
<path d="M0 0 C0.33 2.31 0.66 4.62 1 7 C0.01 7.66 -0.98 8.32 -2 9 C-3.35439668 6.29120665 -3.06501451 3.99066732 -3 1 C-1 0 -1 0 0 0 Z " fill="#226E7B" transform="translate(79,619)"/>
<path d="M0 0 C0.33 0 0.66 0 1 0 C1.125 2.875 1.125 2.875 1 6 C0.34 6.66 -0.32 7.32 -1 8 C-1.64767793 10.57061311 -1.64767793 10.57061311 -2 13 C-2.99 13.33 -3.98 13.66 -5 14 C-3.45730076 9.27934033 -1.92205381 4.58335908 0 0 Z " fill="#34888F" transform="translate(99,325)"/>
<path d="M0 0 C5.445 1.485 5.445 1.485 11 3 C11 3.66 11 4.32 11 5 C7.7 4.34 4.4 3.68 1 3 C0.67 2.01 0.34 1.02 0 0 Z " fill="#329C9B" transform="translate(627,74)"/>
<path d="M0 0 C0.66 0.33 1.32 0.66 2 1 C2.125 8.75 2.125 8.75 1 11 C0.34 11 -0.32 11 -1 11 C-0.67 7.37 -0.34 3.74 0 0 Z " fill="#196A76" transform="translate(68,569)"/>
<path d="M0 0 C1.12894876 0.93274109 2.25300876 1.87140122 3.375 2.8125 C4.00148438 3.33457031 4.62796875 3.85664063 5.2734375 4.39453125 C7 6 7 6 9 9 C7.68 8.67 6.36 8.34 5 8 C5 7.34 5 6.68 5 6 C4.360625 5.7525 3.72125 5.505 3.0625 5.25 C1 4 1 4 0.37109375 1.921875 C0.24863281 1.28765625 0.12617188 0.6534375 0 0 Z " fill="#3F7477" transform="translate(430,479)"/>
<path d="M0 0 C0 0.66 0 1.32 0 2 C-0.99 2 -1.98 2 -3 2 C-3.2475 2.639375 -3.495 3.27875 -3.75 3.9375 C-5 6 -5 6 -7.125 6.75 C-8.053125 6.87375 -8.053125 6.87375 -9 7 C-9 6.34 -9 5.68 -9 5 C-3.24242424 0 -3.24242424 0 0 0 Z " fill="#A5B451" transform="translate(885,258)"/>
<path d="M0 0 C0.66 0.33 1.32 0.66 2 1 C2 4 2 4 0.6875 5.38671875 C-0.875 6.59114583 -2.4375 7.79557292 -4 9 C-4.66 8.67 -5.32 8.34 -6 8 C-4.02 5.36 -2.04 2.72 0 0 Z " fill="#2C8D8E" transform="translate(160,225)"/>
<path d="M0 0 C1.07310858 3.27185553 0.89263102 5.42947592 0.0625 8.75 C-0.22947266 9.94882812 -0.22947266 9.94882812 -0.52734375 11.171875 C-0.68332031 11.77515625 -0.83929688 12.3784375 -1 13 C-1.66 13 -2.32 13 -3 13 C-2.68991116 11.39536551 -2.37683713 9.79130769 -2.0625 8.1875 C-1.88847656 7.29417969 -1.71445313 6.40085937 -1.53515625 5.48046875 C-1 3 -1 3 0 0 Z " fill="#3E878F" transform="translate(79,380)"/>
<path d="M0 0 C0 0.99 0 1.98 0 3 C-2.81534937 5.65894107 -5.12793601 7.42636089 -9 8 C-6.78189589 4.61447267 -4.52377014 2.94734666 -1 1 C-0.67 0.67 -0.34 0.34 0 0 Z " fill="#854A55" transform="translate(772,362)"/>
<path d="M0 0 C0.66 0.33 1.32 0.66 2 1 C-2.625 6.875 -2.625 6.875 -6 8 C-4.55746343 4.63408134 -2.66735273 2.48952921 0 0 Z " fill="#E2F6F4" transform="translate(313,314)"/>
<path d="M0 0 C0.66 0.33 1.32 0.66 2 1 C-2.43076923 6.78461538 -2.43076923 6.78461538 -5.3125 7.875 C-5.869375 7.91625 -6.42625 7.9575 -7 8 C-5.60746468 4.51866169 -4.36823784 3.52113967 -1 2 C-0.67 1.34 -0.34 0.68 0 0 Z " fill="#304E65" transform="translate(408,697)"/>
<path d="M0 0 C0.33 0.99 0.66 1.98 1 3 C-0.4375 5.1875 -0.4375 5.1875 -2 7 C-3.32 6.67 -4.64 6.34 -6 6 C-4.02 4.02 -2.04 2.04 0 0 Z " fill="#3C7476" transform="translate(567,508)"/>
<path d="M0 0 C2.64 0 5.28 0 8 0 C8.66 1.32 9.32 2.64 10 4 C6.7 3.01 3.4 2.02 0 1 C0 0.67 0 0.34 0 0 Z " fill="#369597" transform="translate(702,306)"/>
<path d="M0 0 C0 3 0 3 -1.5 4.6875 C-1.995 5.120625 -2.49 5.55375 -3 6 C-4.32 5.34 -5.64 4.68 -7 4 C-4.69 2.68 -2.38 1.36 0 0 Z " fill="#309497" transform="translate(268,129)"/>
<path d="M0 0 C2.18975773 3.28463659 2.99806563 6.20696275 4 10 C3.34 10 2.68 10 2 10 C2 9.01 2 8.02 2 7 C1.34 7 0.68 7 0 7 C0 4.69 0 2.38 0 0 Z " fill="#DDAD4C" transform="translate(923,330)"/>
<path d="M0 0 C1.32 0.33 2.64 0.66 4 1 C1.03 3.475 1.03 3.475 -2 6 C-2.33 5.01 -2.66 4.02 -3 3 C-2.01 2.67 -1.02 2.34 0 2 C0 1.34 0 0.68 0 0 Z " fill="#3C9696" transform="translate(647,328)"/>
<path d="M0 0 C1.24546405 2.49092811 0.7767578 3.41080733 0 6 C-1.65 6 -3.3 6 -5 6 C-3.35 4.02 -1.7 2.04 0 0 Z " fill="#775165" transform="translate(699,701)"/>
<path d="M0 0 C0.66 0 1.32 0 2 0 C2 3 2 3 0 5.1875 C-0.66 5.785625 -1.32 6.38375 -2 7 C-2.66 6.67 -3.32 6.34 -4 6 C-1.125 1.125 -1.125 1.125 0 0 Z " fill="#307072" transform="translate(539,535)"/>
<path d="M0 0 C0.33 0.66 0.66 1.32 1 2 C-0.32 3.65 -1.64 5.3 -3 7 C-3.99 6.67 -4.98 6.34 -6 6 C-4.02 4.02 -2.04 2.04 0 0 Z " fill="#387172" transform="translate(632,446)"/>
<path d="M0 0 C0.66 0.99 1.32 1.98 2 3 C0.35 4.32 -1.3 5.64 -3 7 C-3 3 -3 3 -1.5 1.25 C-1.005 0.8375 -0.51 0.425 0 0 Z " fill="#308F8C" transform="translate(593,379)"/>
<path d="M0 0 C-0.6875 1.9375 -0.6875 1.9375 -2 4 C-4.625 4.75 -4.625 4.75 -7 5 C-7 4.34 -7 3.68 -7 3 C-2.61538462 0 -2.61538462 0 0 0 Z " fill="#2C9597" transform="translate(312,105)"/>
</svg>
